<?xml version="1.0" encoding="utf-8"?>
<!-- Generator: Adobe Illustrator 17.0.0, SVG Export Plug-In . SVG Version: 6.00 Build 0)  -->
<!DOCTYPE svg PUBLIC "-//W3C//DTD SVG 1.1//EN" "http://www.w3.org/Graphics/SVG/1.1/DTD/svg11.dtd">
<svg version="1.1" id="Layer_1" xmlns="http://www.w3.org/2000/svg" xmlns:xlink="http://www.w3.org/1999/xlink" x="0px" y="0px"
	 width="300px" height="300px" viewBox="0 0 300 300" enable-background="new 0 0 300 300" xml:space="preserve">
<polyline fill="none" stroke="#FFFFFF" stroke-width="11" stroke-linecap="round" stroke-linejoin="round" stroke-miterlimit="10" points="
	262.902,137.221 262.902,258.81 180.45,258.81 180.45,143.992 119.55,143.992 119.55,258.81 37.098,258.81 37.098,137.221 
	36.867,137.418 150,41.19 263.133,137.418 "/>
<path fill="none" stroke="#FFFFFF" stroke-width="11" stroke-linecap="round" stroke-linejoin="round" stroke-miterlimit="10" d="
	M-117.142,59.029c20.708-14.282,34.651-40.953,34.651-71.522c0-45.617-31.023-82.596-69.292-82.596s-69.292,36.98-69.292,82.596
	c0,30.569,13.943,57.24,34.651,71.522c-48.18,6.225-83.21,28.209-83.21,84.185h235.702C-33.932,87.237-68.962,65.254-117.142,59.029
	z"/>
<path fill="none" stroke="#FFFFFF" stroke-width="11" stroke-linecap="round" stroke-linejoin="round" stroke-miterlimit="10" d="
	M-494.211,315.65c-4.774-1.451-16.121,3.178-19.965,0c-11.967-9.887-18.796-26.811-17.418-41.712
	c0.462-5.004,11.863-9.781,14.227-14.223c1.17-2.195,0.936-7.639-0.022-9.939c-2.675-6.485-13.376-17.182-19.864-19.867
	c-2.289-0.951-7.739-1.164-9.932,0c-4.487,2.398-9.318,13.882-14.377,14.381c-14.472,1.423-31.05-5.069-40.65-16.696
	c-3.323-4.025,1.516-15.87,0-20.86c-0.733-2.374-4.743-6.072-7.037-7.019c-6.508-2.682-21.601-2.682-28.104,0
	c-2.292,0.947-6.3,4.652-7.027,7.026c-1.523,4.99,3.319,16.834,0,20.853c-9.746,11.799-26.501,18.458-41.189,17.055
	c-5.19-0.5-10.145-12.287-14.743-14.74c-2.191-1.164-7.626-0.947-9.932,0c-6.489,2.684-17.186,13.379-19.877,19.867
	c-0.951,2.3-1.168,7.743,0,9.939c2.46,4.594,14.253,9.553,14.75,14.74c1.399,14.691-5.259,31.442-17.052,41.188
	c-4.19,3.467-16.555-1.581-21.749,0c-2.381,0.724-6.079,4.732-7.027,7.023c-2.681,6.492-2.681,21.608,0,28.101
	c0.948,2.294,4.646,6.299,7.027,7.029c5.194,1.592,17.559-3.467,21.749,0c11.617,9.608,18.113,26.191,16.69,40.658
	c-0.527,5.375-12.726,10.504-15.266,15.267c-1.165,2.19-0.951,7.649,0,9.938c2.692,6.485,13.375,17.189,19.867,19.878
	c2.291,0.95,7.74,1.172,9.931,0c4.714-2.517,9.788-14.619,15.108-15.109c14.905-1.378,31.836,5.454,41.713,17.412
	c3.319,4.016-1.523,15.879,0,20.862c0.727,2.37,4.735,6.079,7.027,7.032c6.503,2.68,21.597,2.68,28.104,0
	c2.294-0.953,6.299-4.662,7.023-7.032c1.53-4.983-3.323-16.846,0-20.862c9.752-11.786,26.507-18.438,41.193-17.04
	c5.183,0.496,10.14,12.283,14.737,14.737c2.193,1.164,7.643,0.95,9.932,0c6.491-2.689,17.189-13.393,19.878-19.878
	c0.95-2.288,1.164-7.748,0-9.938c-2.455-4.6-14.241-9.554-14.737-14.737c-1.398-14.681,5.253-31.442,17.046-41.188
	c3.844-3.176,15.191,1.454,19.965,0c2.379-0.716,6.079-4.729,7.032-7.029c2.689-6.494,2.689-21.609,0-28.101
	C-488.124,320.375-491.833,316.37-494.211,315.65z M-623.297,384.76c-26.536,0-48.033-21.513-48.033-48.044
	c0-26.525,21.497-48.029,48.033-48.029c26.53,0,48.04,21.504,48.04,48.029C-575.257,363.247-596.766,384.76-623.297,384.76z"/>
<g>
	<path fill="none" stroke="#FFFFFF" stroke-width="11" stroke-linecap="round" stroke-linejoin="round" stroke-miterlimit="10" d="
		M-141.523,454.183c10.343,2,20.214,7.017,28.231,15.035c21.377,21.377,21.377,55.975,0,77.36l-0.187-0.187l-69.619,69.619
		c-21.377,21.377-55.975,21.377-77.36,0c-21.377-21.377-21.377-55.975,0-77.36l29.549-29.549"/>
	<path fill="none" stroke="#FFFFFF" stroke-width="11" stroke-linecap="round" stroke-linejoin="round" stroke-miterlimit="10" d="
		M-162.046,547.155c-10.343-2-20.214-7.017-28.231-15.035c-21.377-21.377-21.377-55.975,0-77.36l0.187,0.187l69.619-69.619
		c21.377-21.377,55.975-21.377,77.36,0s21.377,55.975,0,77.36l-29.549,29.549"/>
</g>
</svg>
