<?xml version="1.0" encoding="utf-8"?>
<!-- Generator: Adobe Illustrator 17.1.0, SVG Export Plug-In . SVG Version: 6.00 Build 0)  -->
<!DOCTYPE svg PUBLIC "-//W3C//DTD SVG 1.1//EN" "http://www.w3.org/Graphics/SVG/1.1/DTD/svg11.dtd">
<svg version="1.1" id="Layer_1" xmlns="http://www.w3.org/2000/svg" xmlns:xlink="http://www.w3.org/1999/xlink" x="0px" y="0px"
	 viewBox="51.4 -2.1 232.6 214.3" enable-background="new 51.4 -2.1 232.6 214.3" xml:space="preserve">
<path fill="none" stroke="#FFFFFF" stroke-width="10" stroke-miterlimit="10" d="M105.5,207.3H62.1V68.4h43.3
	C105.5,68.4,105.5,207.3,105.5,207.3z M82.6,51.1h-0.3c-15.7,0-25.9-10.6-25.9-24.1C56.5,13.4,67.1,2.9,83,2.9s25.9,10.4,26.2,24.1
	C109.1,40.4,99,51.1,82.6,51.1z M279,207.3h-49.2v-71.9c0-18.8-7.7-31.7-24.5-31.7c-13,0-20.2,8.7-23.5,16.9
	c-1.3,2.9-1.1,7.2-1.1,11.4v75.1H132c0,0,0.6-127.2,0-138.9h48.7v21.8c2.9-9.5,18.4-23.2,43.3-23.2c30.8,0,55,20,55,62.9L279,207.3
	L279,207.3z"/>
</svg>
