<?xml version="1.0" encoding="utf-8"?>
<!-- Generator: Adobe Illustrator 17.0.0, SVG Export Plug-In . SVG Version: 6.00 Build 0)  -->
<!DOCTYPE svg PUBLIC "-//W3C//DTD SVG 1.1//EN" "http://www.w3.org/Graphics/SVG/1.1/DTD/svg11.dtd">
<svg version="1.1" id="Layer_1" xmlns="http://www.w3.org/2000/svg" xmlns:xlink="http://www.w3.org/1999/xlink" x="0px" y="0px"
	 width="300px" height="300px" viewBox="0 0 300 300" enable-background="new 0 0 300 300" xml:space="preserve">
<g>
	<path fill="none" stroke="#FFFFFF" stroke-width="11" stroke-linecap="round" stroke-linejoin="round" stroke-miterlimit="10" d="
		M160.26,103.514c10.343,2,20.214,7.017,28.231,15.035c21.377,21.377,21.377,55.975,0,77.36l-0.187-0.187l-69.619,69.619
		c-21.377,21.377-55.975,21.377-77.36,0c-21.377-21.377-21.377-55.975,0-77.36l29.549-29.549"/>
	<path fill="none" stroke="#FFFFFF" stroke-width="11" stroke-linecap="round" stroke-linejoin="round" stroke-miterlimit="10" d="
		M139.737,196.486c-10.343-2-20.214-7.017-28.231-15.035c-21.377-21.377-21.377-55.975,0-77.36l0.187,0.187l69.619-69.619
		c21.377-21.377,55.975-21.377,77.36,0s21.377,55.975,0,77.36l-29.549,29.549"/>
</g>
</svg>
