<?xml version="1.0" encoding="utf-8"?>
<!-- Generator: Adobe Illustrator 17.1.0, SVG Export Plug-In . SVG Version: 6.00 Build 0)  -->
<!DOCTYPE svg PUBLIC "-//W3C//DTD SVG 1.1//EN" "http://www.w3.org/Graphics/SVG/1.1/DTD/svg11.dtd">
<svg version="1.1" id="Layer_1" xmlns="http://www.w3.org/2000/svg" xmlns:xlink="http://www.w3.org/1999/xlink" x="0px" y="0px"
	 viewBox="0 0 72.6 53.7" enable-background="new 0 0 72.6 53.7" xml:space="preserve">
<path fill="#FFFFFF" d="M24.9-96.3l21.5,21.5l7.2-7.2l7.2,7.2l-7.5,7.5c-0.7,1.5-1.8,3.1-3.3,4.6c-0.1,0.1-1.7,1.9-4.6,3.3l-7.9,7.9
	l-7.2-7.2l7.1-7.1L16.3-86.8v50.6c16.6,0,31.6-6.7,42.5-17.6c10.9-10.9,17.6-25.9,17.6-42.5H24.9z M55.8-56.7
	c-0.4,0.5-11.5,12.8-30.7,12.8l-1.2,0v-2.9l1,0.1c0,0,0.3,0,0.8,0c0,0,0,0,0,0c3.9,0,17.2-0.9,28-12c0.2-0.2,12.2-11.1,12-29l0-0.9
	h2.9l0.1,0.9C68.8-87.1,69.7-70.4,55.8-56.7z"/>
<path fill="#FFFFFF" d="M217.5,33.3h-5.7c-9.3,0-16.5-7.4-16.5-19.8s7.2-19.8,16.5-19.8h28.6c9.3,0,16.5,7.4,16.5,19.8
	s-7.2,19.8-16.5,19.8h-5.7V20.4h5.7c3.3,0,5.5-3.1,5.5-6.9c0-3.9-2.2-6.3-5.5-6.3h-28.6c-3.9,0-5.5,2.5-5.5,6.3
	c0,3.9,1.6,6.9,5.5,6.9h5.7V33.3z"/>
<path fill="#FFFFFF" d="M127.5-283.6v5.7c0,9.3-7.4,16.5-19.8,16.5s-19.8-7.2-19.8-16.5v-28.6c0-9.3,7.4-16.5,19.8-16.5
	s19.8,7.2,19.8,16.5v5.7h-12.9v-5.7c0-3.3-3.1-5.5-6.9-5.5c-3.9,0-6.3,2.2-6.3,5.5v28.6c0,3.9,2.5,5.5,6.3,5.5
	c3.9,0,6.9-1.6,6.9-5.5v-5.7H127.5z"/>
<g>
	<g opacity="0.5">
		<path d="M345.3,163.4v7.5h51.8v9.7h-51.8v7.5h-8.2v-24.7H345.3z"/>
		<path d="M337.1,130.4l38.4,11.1h21.6v9.7h-21.6L337.1,162V152l25.7-5.9l-25.7-6.1V130.4z"/>
		<path d="M388.9,104.2h8.2v22.9h-60v-9.7h51.8V104.2z"/>
		<path d="M345.3,90.3h17.6V79.1h8.2v11.1h17.8V76.9h8.2V100h-60V76.9h8.2V90.3z"/>
		<path d="M397.1,43.5v9.7L376,54.8c-3.2,0.3-4.2,1.9-4.2,4.2v3.1h25.4v9.7h-60V57.1c0-9,4.7-12.6,11.3-12.6h9.3
			c4.9,0,8.5,1.6,10.2,5.5c1.4-2.6,3.8-4,7.8-4.5L397.1,43.5z M345.3,62.1h18.2v-4.5c0-2.5-1.3-3.3-3.3-3.3h-11.7
			c-1.7,0-3.3,0.9-3.3,3.3V62.1z"/>
		<path d="M375.7-0.6h9.9c7,0,12,4.6,12,13.7c0,9-5,13.7-12,13.7h-37.1c-7,0-12-4.7-12-13.7c0-9.1,5-13.7,12-13.7h9.9v9.4h-9.9
			c-2.1,0-3.5,1.9-3.5,4.3c0,2.4,1.4,3.9,3.5,3.9h37.1c2.4,0,3.5-1.5,3.5-3.9c0-2.4-1.1-4.3-3.5-4.3h-9.9V-0.6z"/>
		<path d="M348.6-5.7c-7,0-12-4.7-12-13.7c0-9.1,5-13.7,12-13.7h37.1c7,0,12,4.6,12,13.7c0,9-5,13.7-12,13.7H348.6z M348.6-23.5
			c-2.1,0-3.5,1.6-3.5,4c0,2.4,1.4,3.9,3.5,3.9h37.1c2.1,0,3.5-1.5,3.5-3.9c0-2.4-1.4-4-3.5-4H348.6z"/>
		<path d="M375.7-66.3h9.9c7,0,12,4.6,12,13.7c0,9-5,13.7-12,13.7h-37.1c-7,0-12-4.7-12-13.7c0-9.1,5-13.7,12-13.7h9.9v9.4h-9.9
			c-2.1,0-3.5,1.9-3.5,4.3c0,2.4,1.4,3.9,3.5,3.9h37.1c2.4,0,3.5-1.5,3.5-3.9c0-2.4-1.1-4.3-3.5-4.3h-9.9V-66.3z"/>
		<path d="M337.1-99.7h60v9.7h-26v8.2h26v9.7h-60v-9.7h25.8V-90h-25.8V-99.7z"/>
		<path d="M397.1-135.1v9.7l-21.2,1.5c-3.2,0.3-4.2,1.9-4.2,4.2v3.1h25.4v9.7h-60v-14.7c0-9,4.7-12.6,11.3-12.6h9.3
			c4.9,0,8.5,1.6,10.2,5.5c1.4-2.6,3.8-4,7.8-4.5L397.1-135.1z M345.3-116.5h18.2v-4.5c0-2.5-1.3-3.3-3.3-3.3h-11.7
			c-1.7,0-3.3,0.9-3.3,3.3V-116.5z"/>
		<path d="M382.5-156.7v7.9l14.7,2.1v9.6l-60.5-11v-9.7l60.5-10.8v9.9L382.5-156.7z M374.2-155.5l-19.3,2.7l19.3,2.7V-155.5z"/>
		<path d="M337.1-200.5h60v10.3l-33.5,9.2c5.7-0.2,10.9-0.3,15.8-0.3h17.7v8.8h-60V-183l32.8-8.9c-5.5,0.2-10.5,0.3-15.2,0.3h-17.7
			V-200.5z"/>
	</g>
	<g>
		<path fill="#FFFFFF" d="M345.3,165.4v7.5h51.8v9.7h-51.8v7.5h-8.2v-24.7H345.3z"/>
		<path fill="#FFFFFF" d="M337.1,132.4l38.4,11.1h21.6v9.7h-21.6L337.1,164V154l25.7-5.9l-25.7-6.1V132.4z"/>
		<path fill="#FFFFFF" d="M388.9,106.2h8.2v22.9h-60v-9.7h51.8V106.2z"/>
		<path fill="#FFFFFF" d="M345.3,92.3h17.6V81.1h8.2v11.1h17.8V78.9h8.2V102h-60V78.9h8.2V92.3z"/>
		<path fill="#FFFFFF" d="M397.1,45.5v9.7L376,56.8c-3.2,0.3-4.2,1.9-4.2,4.2v3.1h25.4v9.7h-60V59.1c0-9,4.7-12.6,11.3-12.6h9.3
			c4.9,0,8.5,1.6,10.2,5.5c1.4-2.6,3.8-4,7.8-4.5L397.1,45.5z M345.3,64.1h18.2v-4.5c0-2.5-1.3-3.3-3.3-3.3h-11.7
			c-1.7,0-3.3,0.9-3.3,3.3V64.1z"/>
		<path fill="#FFFFFF" d="M375.7,1.4h9.9c7,0,12,4.6,12,13.7c0,9-5,13.7-12,13.7h-37.1c-7,0-12-4.7-12-13.7c0-9.1,5-13.7,12-13.7
			h9.9v9.4h-9.9c-2.1,0-3.5,1.9-3.5,4.3c0,2.4,1.4,3.9,3.5,3.9h37.1c2.4,0,3.5-1.5,3.5-3.9c0-2.4-1.1-4.3-3.5-4.3h-9.9V1.4z"/>
		<path fill="#FFFFFF" d="M348.6-3.7c-7,0-12-4.7-12-13.7c0-9.1,5-13.7,12-13.7h37.1c7,0,12,4.6,12,13.7c0,9-5,13.7-12,13.7H348.6z
			 M348.6-21.5c-2.1,0-3.5,1.6-3.5,4c0,2.4,1.4,3.9,3.5,3.9h37.1c2.1,0,3.5-1.5,3.5-3.9c0-2.4-1.4-4-3.5-4H348.6z"/>
		<path fill="#FFFFFF" d="M375.7-64.3h9.9c7,0,12,4.6,12,13.7c0,9-5,13.7-12,13.7h-37.1c-7,0-12-4.7-12-13.7c0-9.1,5-13.7,12-13.7
			h9.9v9.4h-9.9c-2.1,0-3.5,1.9-3.5,4.3c0,2.4,1.4,3.9,3.5,3.9h37.1c2.4,0,3.5-1.5,3.5-3.9c0-2.4-1.1-4.3-3.5-4.3h-9.9V-64.3z"/>
		<path fill="#FFFFFF" d="M337.1-97.7h60v9.7h-26v8.2h26v9.7h-60v-9.7h25.8V-88h-25.8V-97.7z"/>
		<path fill="#FFFFFF" d="M397.1-133.1v9.7l-21.2,1.5c-3.2,0.3-4.2,1.9-4.2,4.2v3.1h25.4v9.7h-60v-14.7c0-9,4.7-12.6,11.3-12.6h9.3
			c4.9,0,8.5,1.6,10.2,5.5c1.4-2.6,3.8-4,7.8-4.5L397.1-133.1z M345.3-114.5h18.2v-4.5c0-2.5-1.3-3.3-3.3-3.3h-11.7
			c-1.7,0-3.3,0.9-3.3,3.3V-114.5z"/>
		<path fill="#FFFFFF" d="M382.5-154.7v7.9l14.7,2.1v9.6l-60.5-11v-9.7l60.5-10.8v9.9L382.5-154.7z M374.2-153.5l-19.3,2.7l19.3,2.7
			V-153.5z"/>
		<path fill="#FFFFFF" d="M337.1-198.5h60v10.3l-33.5,9.2c5.7-0.2,10.9-0.3,15.8-0.3h17.7v8.8h-60V-181l32.8-8.9
			c-5.5,0.2-10.5,0.3-15.2,0.3h-17.7V-198.5z"/>
	</g>
</g>
<g>
	<path fill="#FFFFFF" d="M32.9,35.7V33v-2.7H18.3l-15.1,0L0,27.1l3.7-3.7h14.6h14.6v-2.7V18h3.4h3.4v8.8v8.8h-3.4H32.9z"/>
	<path fill="#FFFFFF" d="M72.6,38.6v2v2c0,3.6-1.6,6.3-4.2,8.1s-6,2.8-9.8,2.8s-7.3-1-9.9-2.8s-4.2-4.6-4.2-8.1V26.8V10.9
		c0-3.6,1.6-6.3,4.2-8.1S54.8,0,58.6,0c3.8,0,7.3,1,9.8,2.8s4.2,4.6,4.2,8.1v2v2h-2.1h-0.1c-1.1,0-2-0.9-2-2v0v-2
		c0-2.3-1.1-4.2-2.8-5.5c-1.7-1.3-4.2-2-6.9-2s-5.1,0.7-6.9,2S49,8.6,49,10.9v15.9v15.9c0,2.4,1,4.3,2.7,5.6c1.7,1.3,4.1,2,6.9,2
		s5.2-0.7,6.9-2c1.7-1.3,2.8-3.2,2.8-5.6v-2v0c0-1.1,0.9-2,2-2h0.1H72.6z"/>
</g>
<g id="Layer_2">
	<path fill="none" stroke="#FFFFFF" stroke-width="8" stroke-miterlimit="10" d="M810.1-37.8c0,0-0.1-60.6,2.1-70.1
		c0,0,0.8-33,0.8-54.4c3.9,1,8.9,3.4,12,9.2c0,0,95.5-6.2,96.5-6.8l-4.7-29.7c0,0-93.8,5-94.5,5.3c0,0-2.5,6.5-9.5,9.4
		c-0.2-3-0.4-5-0.7-5.4c0,0-0.9-50.2,1.6-55.4c0,0,0.7-7.9,1.5-11.8c0,0,0.5-4.1-1.8-7.7l2-2c0,0,0.8-10.6,1.4-13.2
		c0,0,2.7-4.2,5.1-3.4c0,0,7.6-0.7,19,17.6c0,0,3.2,6.8,9.8,7.2c0,0,3,1.1-0.2-3.9c0,0-4.9-11.5-14.2-23.1c0,0-3.4-7.2-19.1-13
		c0,0-22-3.2-27.8-2.7c0,0-7.8,6.8-16.2,3.5c0,0-2.5-1.7-3.3-1.8l-8.6,0.3c0,0-9.1,8-0.4,20.2c0,0,6.4,0.4,8.3,0
		c0,0,4.1-3.4,6.8-4.2c0,0,5.9-2.7,11,0.7c0,0,5.9,4.7,4.7,14.9c0,0,0.3,1.6,1.4,2.8c0,0-1.3,11.5,0.7,15.5c0,0,1.4,36.8-0.5,56
		c0,0-0.2,2.9-0.6,7.6c-0.1-0.1-0.2-0.1-0.2-0.1l-1.6-0.5c0,0-0.8-1.6-1.9-1.1l-0.8-1l-11.4,0.8c0,0-14.7-1.9-16.8-1
		c0,0-6.3-1.1-14,0.6c0,0-6.8,1.5-14.5,0.9c0,0-13.6-1.2-20.2,0.8c0,0-20.6,1.3-21.9,1.7c0,0-0.2-0.6-2.5,1.1c0,0-7.8-0.1-10.6,0.7
		c0,0-8.2,4.5-7.2,12.2c0,0-1.1,14.1,10,17.2l9.7-0.2c0,0,0.6-0.1,0.7-0.8c0,0,1.1,1.6,3.1,1.4l17-1.3c0,0,12.3,0.1,16.5-1.7
		c0,0,13-3,17.5-2.5c0,0,6.9,0.1,8.3,0.1c0,0,7.5-0.1,10.6-1.4l16.9-4l10.4-1.3l1-0.8c0,0,0.1,0.1,0.4,0.2
		c-1.3,18.6-2.7,40.3-1.8,43.1c0,0-1.9,35.1-1.5,41.8c0,0-1,28-2.8,31.6c0,0-0.8,3.5,2.7,4.3c0,0,17.1,2,19.3,0.7
		C807.1-34.6,810-34.9,810.1-37.8z"/>
</g>
</svg>
