<?xml version="1.0" encoding="utf-8"?>
<!-- Generator: Adobe Illustrator 17.1.0, SVG Export Plug-In . SVG Version: 6.00 Build 0)  -->
<!DOCTYPE svg PUBLIC "-//W3C//DTD SVG 1.1//EN" "http://www.w3.org/Graphics/SVG/1.1/DTD/svg11.dtd">
<svg version="1.1" id="Layer_1" xmlns="http://www.w3.org/2000/svg" xmlns:xlink="http://www.w3.org/1999/xlink" x="0px" y="0px"
	 viewBox="-5.1 -6.2 288.4 225" enable-background="new -5.1 -6.2 288.4 225" xml:space="preserve">
<path fill="none" stroke="#FFFFFF" stroke-width="11" stroke-miterlimit="10" d="M278.4,28c-9.5,4.2-19.7,7.1-30.4,8.3
	c10.9-6.6,19.3-16.9,23.3-29.3c-10.2,6.1-21.5,10.5-33.6,12.8C228,9.6,214.2,3.2,199,3.2c-29.2,0-52.9,23.7-52.9,52.9
	c0,4.2,0.4,8.2,1.4,12.1c-44-2.2-83-23.3-109.1-55.3c-4.5,7.8-7.2,16.9-7.2,26.6c0,18.4,9.3,34.6,23.5,44c-8.6-0.3-16.8-2.7-24-6.6
	v0.6c0,25.7,18.2,47.1,42.5,51.9c-4.4,1.3-9.1,1.9-13.9,1.9c-3.4,0-6.8-0.3-10-0.9c6.8,21,26.3,36.3,49.5,36.7
	c-18.1,14.2-41,22.7-65.8,22.7c-4.3,0-8.5-0.3-12.6-0.8c23.4,15,51.2,23.8,81.1,23.8c97.4,0,150.6-80.6,150.6-150.6
	c0-2.3-0.1-4.6-0.1-6.9C262.3,47.9,271.3,38.6,278.4,28"/>
</svg>
