<?xml version="1.0" encoding="utf-8"?>
<!-- Generator: Adobe Illustrator 17.1.0, SVG Export Plug-In . SVG Version: 6.00 Build 0)  -->
<!DOCTYPE svg PUBLIC "-//W3C//DTD SVG 1.1//EN" "http://www.w3.org/Graphics/SVG/1.1/DTD/svg11.dtd">
<svg version="1.1" id="Layer_1" xmlns="http://www.w3.org/2000/svg" xmlns:xlink="http://www.w3.org/1999/xlink" x="0px" y="0px"
	 viewBox="-23.7 270.5 496.2 85.2" enable-background="new -23.7 270.5 496.2 85.2" xml:space="preserve">
<g>
	<g opacity="0.5">
		<path fill="#231F20" d="M3.8,333c-0.1,0.1-0.4,0.2-0.9,0.5c-0.5,0.3-1.1,0.5-1.9,0.8c-0.8,0.3-1.6,0.6-2.6,0.8
			c-1,0.2-2.1,0.3-3.2,0.3c-1.1,0-2.1-0.2-3.1-0.5c-1-0.3-1.8-0.8-2.6-1.4c-0.7-0.6-1.3-1.4-1.8-2.3c-0.5-0.9-0.7-1.9-0.7-3v-34.4
			h-6.2v-2.5h6.2v-15.1h2.9v15.1H0.4v2.5H-10v34c0.1,1.6,0.7,2.9,1.9,3.7c1.1,0.8,2.4,1.3,3.9,1.3c0.9,0,1.8-0.1,2.6-0.3
			c0.8-0.2,1.5-0.4,2.2-0.7c0.6-0.3,1.2-0.5,1.5-0.7c0.4-0.2,0.6-0.4,0.7-0.4L3.8,333z"/>
		<path fill="#231F20" d="M14.5,351.1c1,0,1.9-0.1,2.7-0.2c0.8-0.1,1.3-0.3,1.6-0.5c0.2-0.1,0.4-0.4,0.6-0.8
			c0.3-0.5,0.6-1.2,1.2-2.3c0.5-1.1,1.2-2.6,2.1-4.6c0.8-2,1.9-4.5,3.3-7.7L6,291.2h3.1L27.4,332l17.3-40.8h2.9l-25.1,58.6
			c-0.7,1.6-1.5,2.6-2.6,3.1c-1,0.5-2.3,0.8-3.7,0.8h-1.7V351.1z"/>
		<path fill="#231F20" d="M57.1,273.5h2.8v54c0,1.6,0.5,2.9,1.5,3.9c1,1,2.3,1.4,4,1.4c0.6,0,1.4-0.1,2.2-0.2
			c0.9-0.1,1.7-0.3,2.4-0.6l0.7,2.4c-0.8,0.3-1.9,0.5-3.2,0.8s-2.3,0.3-3.2,0.3c-2.1,0-3.9-0.7-5.2-2c-1.3-1.3-2-3.1-2-5.3V273.5z"
			/>
		<path fill="#231F20" d="M94.9,335.8c-3,0-5.8-0.6-8.3-1.8c-2.6-1.2-4.8-2.9-6.8-5c-1.9-2.1-3.5-4.5-4.5-7.3s-1.6-5.7-1.6-8.9
			c0-3.1,0.5-6,1.6-8.7c1.1-2.7,2.6-5.1,4.5-7.1c1.9-2,4.1-3.6,6.7-4.8s5.3-1.8,8.3-1.8c3,0,5.8,0.6,8.3,1.8
			c2.6,1.2,4.8,2.8,6.7,4.8c1.9,2,3.4,4.5,4.5,7.2c1.1,2.8,1.7,5.7,1.7,8.8c0,0.1,0,0.3,0,0.7c0,0.3,0,0.5,0,0.6H76.5
			c0.2,2.7,0.8,5.2,1.9,7.5c1.1,2.3,2.4,4.3,4.1,6c1.7,1.7,3.6,3,5.7,4c2.1,1,4.4,1.5,6.8,1.5c1.6,0,3.2-0.2,4.8-0.6
			c1.5-0.4,3-1,4.3-1.8c1.3-0.8,2.5-1.7,3.5-2.8s1.8-2.3,2.4-3.6l2.6,0.7c-0.6,1.5-1.5,2.9-2.7,4.3c-1.2,1.3-2.6,2.4-4.2,3.4
			c-1.6,0.9-3.3,1.7-5.1,2.2S96.8,335.8,94.9,335.8z M113,311.9c-0.2-2.8-0.8-5.3-1.8-7.6c-1-2.3-2.3-4.3-4-6
			c-1.7-1.7-3.6-3-5.7-3.9c-2.1-0.9-4.4-1.4-6.9-1.4c-2.5,0-4.8,0.5-6.9,1.4c-2.1,1-4,2.3-5.6,4c-1.6,1.7-2.9,3.7-3.9,6
			c-1,2.3-1.6,4.8-1.7,7.5H113z"/>
		<path fill="#231F20" d="M145.1,293.9c-4,0.2-7.6,1.4-10.5,3.8c-3,2.4-5.1,5.6-6.2,9.7V335h-2.9v-43.8h2.8v11.1
			c1.5-3.1,3.5-5.6,6.1-7.6c2.5-2,5.2-3.1,8.1-3.5c0.6,0,1.1,0,1.5,0c0.4,0,0.8,0,1.2,0V293.9z"/>
		<path fill="#231F20" d="M170.9,312.9c0-3.1,0.5-6.1,1.6-8.8c1.1-2.7,2.6-5.1,4.5-7.1c1.9-2,4.2-3.6,6.8-4.8
			c2.6-1.2,5.4-1.7,8.5-1.7c3.8,0,7.2,0.9,10.1,2.7s5.2,4.2,6.7,7.3l-2.9,1c-1.3-2.6-3.3-4.6-5.9-6.1c-2.6-1.5-5.3-2.2-8.4-2.2
			c-2.5,0-4.9,0.5-7.1,1.5s-4.2,2.4-5.8,4.2c-1.7,1.8-2.9,3.9-3.9,6.3c-0.9,2.4-1.4,5-1.4,7.7c0,2.8,0.5,5.3,1.5,7.8
			c1,2.4,2.3,4.6,4,6.4c1.7,1.9,3.6,3.3,5.8,4.4c2.2,1.1,4.6,1.6,7,1.6c1.6,0,3.2-0.2,4.8-0.7c1.6-0.5,3.1-1.1,4.4-1.9
			c1.3-0.8,2.5-1.7,3.5-2.7c1-1,1.6-2.1,2-3.3l2.8,0.8c-0.5,1.5-1.3,2.9-2.4,4.2c-1.1,1.3-2.5,2.4-4,3.3c-1.5,0.9-3.2,1.7-5.1,2.2
			s-3.8,0.8-5.7,0.8c-3,0-5.8-0.6-8.3-1.8c-2.6-1.2-4.8-2.8-6.8-4.9c-1.9-2.1-3.5-4.5-4.6-7.3S170.9,316.1,170.9,312.9z"/>
		<path fill="#231F20" d="M237.2,335.8c-3,0-5.7-0.6-8.3-1.8c-2.6-1.2-4.8-2.8-6.7-4.9c-1.9-2-3.4-4.4-4.5-7.2
			c-1.1-2.8-1.6-5.6-1.6-8.7c0-3.1,0.5-6,1.6-8.8c1.1-2.8,2.6-5.2,4.5-7.2c1.9-2.1,4.1-3.7,6.7-4.9c2.6-1.2,5.3-1.8,8.2-1.8
			c2.9,0,5.7,0.6,8.3,1.8c2.6,1.2,4.8,2.9,6.7,4.9c1.9,2.1,3.4,4.5,4.5,7.2c1.1,2.8,1.6,5.7,1.6,8.8c0,3-0.5,5.9-1.6,8.7
			s-2.6,5.2-4.5,7.2c-1.9,2.1-4.2,3.7-6.7,4.9C242.9,335.2,240.1,335.8,237.2,335.8z M219,313.4c0,2.7,0.5,5.3,1.4,7.7
			c1,2.4,2.2,4.5,3.9,6.3c1.6,1.8,3.5,3.2,5.8,4.3c2.2,1,4.6,1.6,7,1.6c2.5,0,4.8-0.5,7-1.6c2.2-1.1,4.2-2.5,5.8-4.3
			c1.7-1.8,3-3.9,4-6.4c1-2.4,1.5-5,1.5-7.7c0-2.7-0.5-5.3-1.5-7.7c-1-2.4-2.3-4.6-4-6.4c-1.7-1.8-3.6-3.2-5.8-4.3
			c-2.2-1.1-4.5-1.6-7-1.6c-2.5,0-4.8,0.5-7,1.6c-2.2,1.1-4.1,2.5-5.8,4.3c-1.7,1.8-3,4-4,6.4C219.5,308,219,310.6,219,313.4z"/>
		<path fill="#231F20" d="M265.8,312.9c0-3.1,0.5-6.1,1.6-8.8c1.1-2.7,2.6-5.1,4.5-7.1c1.9-2,4.2-3.6,6.8-4.8
			c2.6-1.2,5.4-1.7,8.5-1.7c3.8,0,7.2,0.9,10.1,2.7c2.9,1.8,5.2,4.2,6.7,7.3l-2.9,1c-1.3-2.6-3.3-4.6-5.9-6.1
			c-2.6-1.5-5.3-2.2-8.4-2.2c-2.5,0-4.9,0.5-7.1,1.5c-2.2,1-4.2,2.4-5.8,4.2c-1.7,1.8-2.9,3.9-3.9,6.3c-0.9,2.4-1.4,5-1.4,7.7
			c0,2.8,0.5,5.3,1.5,7.8c1,2.4,2.3,4.6,4,6.4c1.7,1.9,3.6,3.3,5.8,4.4c2.2,1.1,4.6,1.6,7,1.6c1.6,0,3.2-0.2,4.8-0.7
			c1.6-0.5,3.1-1.1,4.4-1.9c1.3-0.8,2.5-1.7,3.5-2.7c1-1,1.6-2.1,2-3.3l2.8,0.8c-0.5,1.5-1.3,2.9-2.4,4.2c-1.1,1.3-2.5,2.4-4,3.3
			c-1.5,0.9-3.2,1.7-5.1,2.2c-1.9,0.5-3.8,0.8-5.7,0.8c-3,0-5.8-0.6-8.3-1.8c-2.6-1.2-4.8-2.8-6.8-4.9c-1.9-2.1-3.5-4.5-4.6-7.3
			C266.4,319,265.8,316.1,265.8,312.9z"/>
		<path fill="#231F20" d="M349.3,335h-2.9v-24.4c0-11.6-3.8-17.3-11.5-17.3c-1.9,0-3.8,0.4-5.6,1.1c-1.9,0.7-3.6,1.7-5.1,3
			c-1.6,1.3-2.9,2.8-4.1,4.6s-2,3.7-2.6,5.7V335h-2.9v-61.5h2.9v28.6c0.9-1.7,2-3.3,3.3-4.8c1.3-1.4,2.8-2.7,4.3-3.7
			c1.5-1,3.2-1.8,5-2.4c1.8-0.6,3.6-0.8,5.4-0.8c4.8,0,8.3,1.7,10.5,5.1c2.2,3.4,3.4,8.3,3.4,14.6V335z"/>
		<path fill="#231F20" d="M381.9,293.9c-4,0.2-7.6,1.4-10.5,3.8c-3,2.4-5.1,5.6-6.2,9.7V335h-2.9v-43.8h2.8v11.1
			c1.5-3.1,3.5-5.6,6.1-7.6c2.5-2,5.2-3.1,8.1-3.5c0.6,0,1.1,0,1.5,0c0.4,0,0.8,0,1.2,0V293.9z"/>
		<path fill="#231F20" d="M400,335.8c-2,0-3.9-0.4-5.6-1.1s-3.3-1.7-4.5-2.9c-1.3-1.2-2.3-2.6-3-4.3c-0.7-1.6-1.1-3.4-1.1-5.3
			c0-1.9,0.4-3.6,1.3-5.1c0.9-1.5,2.1-2.9,3.7-4c1.6-1.1,3.5-2,5.7-2.6c2.2-0.6,4.7-0.9,7.4-0.9c2.4,0,4.9,0.2,7.4,0.6
			c2.5,0.4,4.8,1,6.7,1.8v-4.7c0-4.4-1.3-7.9-3.7-10.5c-2.5-2.6-5.9-3.9-10.1-3.9c-2.1,0-4.4,0.5-6.8,1.4c-2.4,0.9-4.8,2.3-7.3,4
			l-1.3-2.1c5.7-3.8,10.9-5.7,15.6-5.7c5.1,0,9.1,1.5,12.1,4.5c2.9,3,4.4,7.2,4.4,12.5v22.9c0,1.2,0.5,1.9,1.5,1.9v2.7
			c-0.2,0.1-0.4,0.1-0.7,0.1c-1,0-1.8-0.3-2.5-1.1c-0.7-0.7-1.1-1.6-1.1-2.6v-3.9c-2,2.6-4.6,4.7-7.8,6.1
			C407.2,335.1,403.7,335.8,400,335.8z M400.4,333.4c3.5,0,6.8-0.7,9.7-2c2.9-1.3,5.1-3.1,6.6-5.3c0.9-1.2,1.3-2.3,1.3-3.4v-8.3
			c-4.3-1.7-9-2.5-14-2.5c-4.7,0-8.4,0.9-11.2,2.8c-2.8,1.9-4.3,4.4-4.3,7.5c0,1.6,0.3,3,0.9,4.4c0.6,1.3,1.4,2.5,2.5,3.5
			c1,1,2.3,1.8,3.7,2.4C397.1,333.1,398.7,333.4,400.4,333.4z"/>
		<path fill="#231F20" d="M469,335h-2.9v-24.4c0-6-0.8-10.4-2.5-13.2c-1.7-2.8-4.4-4.2-8.1-4.2c-2,0-4,0.4-5.9,1.1
			c-1.9,0.7-3.7,1.7-5.4,3c-1.7,1.3-3.1,2.8-4.4,4.5c-1.3,1.7-2.2,3.7-2.7,5.7V335h-2.9v-43.8h2.7v10.9c0.9-1.7,2-3.3,3.4-4.8
			c1.4-1.4,2.9-2.7,4.6-3.7s3.5-1.8,5.3-2.4c1.9-0.6,3.8-0.8,5.8-0.8c4.6,0,7.9,1.6,9.9,4.9c2,3.3,3,8.2,3,14.8V335z"/>
	</g>
	<g>
		<path fill="#FFFFFF" d="M2.8,332c-0.1,0.1-0.4,0.2-0.9,0.5c-0.5,0.3-1.1,0.5-1.9,0.8c-0.8,0.3-1.6,0.6-2.6,0.8
			c-1,0.2-2.1,0.3-3.2,0.3c-1.1,0-2.1-0.2-3.1-0.5c-1-0.3-1.8-0.8-2.6-1.4c-0.7-0.6-1.3-1.4-1.8-2.3c-0.5-0.9-0.7-1.9-0.7-3v-34.4
			h-6.2v-2.5h6.2v-15.1h2.9v15.1h10.4v2.5H-11v34c0.1,1.6,0.7,2.9,1.9,3.7c1.1,0.8,2.4,1.3,3.9,1.3c0.9,0,1.8-0.1,2.6-0.3
			c0.8-0.2,1.5-0.4,2.2-0.7c0.6-0.3,1.2-0.5,1.5-0.7c0.4-0.2,0.6-0.4,0.7-0.4L2.8,332z"/>
		<path fill="#FFFFFF" d="M13.5,350.1c1,0,1.9-0.1,2.7-0.2c0.8-0.1,1.3-0.3,1.6-0.5c0.2-0.1,0.4-0.4,0.6-0.8
			c0.3-0.5,0.6-1.2,1.2-2.3c0.5-1.1,1.2-2.6,2.1-4.6c0.8-2,1.9-4.5,3.3-7.7L5,290.2h3.1L26.4,331l17.3-40.8h2.9l-25.1,58.6
			c-0.7,1.6-1.5,2.6-2.6,3.1c-1,0.5-2.3,0.8-3.7,0.8h-1.7V350.1z"/>
		<path fill="#FFFFFF" d="M56.1,272.5h2.8v54c0,1.6,0.5,2.9,1.5,3.9c1,1,2.3,1.4,4,1.4c0.6,0,1.4-0.1,2.2-0.2
			c0.9-0.1,1.7-0.3,2.4-0.6l0.7,2.4c-0.8,0.3-1.9,0.5-3.2,0.8s-2.3,0.3-3.2,0.3c-2.1,0-3.9-0.7-5.2-2c-1.3-1.3-2-3.1-2-5.3V272.5z"
			/>
		<path fill="#FFFFFF" d="M93.9,334.8c-3,0-5.8-0.6-8.3-1.8c-2.6-1.2-4.8-2.9-6.8-5c-1.9-2.1-3.5-4.5-4.5-7.3s-1.6-5.7-1.6-8.9
			c0-3.1,0.5-6,1.6-8.7c1.1-2.7,2.6-5.1,4.5-7.1c1.9-2,4.1-3.6,6.7-4.8s5.3-1.8,8.3-1.8c3,0,5.8,0.6,8.3,1.8
			c2.6,1.2,4.8,2.8,6.7,4.8c1.9,2,3.4,4.5,4.5,7.2c1.1,2.8,1.7,5.7,1.7,8.8c0,0.1,0,0.3,0,0.7c0,0.3,0,0.5,0,0.6H75.5
			c0.2,2.7,0.8,5.2,1.9,7.5c1.1,2.3,2.4,4.3,4.1,6c1.7,1.7,3.6,3,5.7,4c2.1,1,4.4,1.5,6.8,1.5c1.6,0,3.2-0.2,4.8-0.6
			c1.5-0.4,3-1,4.3-1.8c1.3-0.8,2.5-1.7,3.5-2.8s1.8-2.3,2.4-3.6l2.6,0.7c-0.6,1.5-1.5,2.9-2.7,4.3c-1.2,1.3-2.6,2.4-4.2,3.4
			c-1.6,0.9-3.3,1.7-5.1,2.2S95.8,334.8,93.9,334.8z M112,310.9c-0.2-2.8-0.8-5.3-1.8-7.6c-1-2.3-2.3-4.3-4-6
			c-1.7-1.7-3.6-3-5.7-3.9c-2.1-0.9-4.4-1.4-6.9-1.4c-2.5,0-4.8,0.5-6.9,1.4c-2.1,1-4,2.3-5.6,4c-1.6,1.7-2.9,3.7-3.9,6
			c-1,2.3-1.6,4.8-1.7,7.5H112z"/>
		<path fill="#FFFFFF" d="M144.1,292.9c-4,0.2-7.6,1.4-10.5,3.8c-3,2.4-5.1,5.6-6.2,9.7V334h-2.9v-43.8h2.8v11.1
			c1.5-3.1,3.5-5.6,6.1-7.6c2.5-2,5.2-3.1,8.1-3.5c0.6,0,1.1,0,1.5,0c0.4,0,0.8,0,1.2,0V292.9z"/>
		<path fill="#FFFFFF" d="M169.9,311.9c0-3.1,0.5-6.1,1.6-8.8c1.1-2.7,2.6-5.1,4.5-7.1c1.9-2,4.2-3.6,6.8-4.8
			c2.6-1.2,5.4-1.7,8.5-1.7c3.8,0,7.2,0.9,10.1,2.7s5.2,4.2,6.7,7.3l-2.9,1c-1.3-2.6-3.3-4.6-5.9-6.1c-2.6-1.5-5.3-2.2-8.4-2.2
			c-2.5,0-4.9,0.5-7.1,1.5s-4.2,2.4-5.8,4.2c-1.7,1.8-2.9,3.9-3.9,6.3c-0.9,2.4-1.4,5-1.4,7.7c0,2.8,0.5,5.3,1.5,7.8
			c1,2.4,2.3,4.6,4,6.4c1.7,1.9,3.6,3.3,5.8,4.4c2.2,1.1,4.6,1.6,7,1.6c1.6,0,3.2-0.2,4.8-0.7c1.6-0.5,3.1-1.1,4.4-1.9
			c1.3-0.8,2.5-1.7,3.5-2.7c1-1,1.6-2.1,2-3.3l2.8,0.8c-0.5,1.5-1.3,2.9-2.4,4.2c-1.1,1.3-2.5,2.4-4,3.3c-1.5,0.9-3.2,1.7-5.1,2.2
			s-3.8,0.8-5.7,0.8c-3,0-5.8-0.6-8.3-1.8c-2.6-1.2-4.8-2.8-6.8-4.9c-1.9-2.1-3.5-4.5-4.6-7.3S169.9,315.1,169.9,311.9z"/>
		<path fill="#FFFFFF" d="M236.2,334.8c-3,0-5.7-0.6-8.3-1.8c-2.6-1.2-4.8-2.8-6.7-4.9c-1.9-2-3.4-4.4-4.5-7.2
			c-1.1-2.8-1.6-5.6-1.6-8.7c0-3.1,0.5-6,1.6-8.8c1.1-2.8,2.6-5.2,4.5-7.2c1.9-2.1,4.1-3.7,6.7-4.9c2.6-1.2,5.3-1.8,8.2-1.8
			c2.9,0,5.7,0.6,8.3,1.8c2.6,1.2,4.8,2.9,6.7,4.9c1.9,2.1,3.4,4.5,4.5,7.2c1.1,2.8,1.6,5.7,1.6,8.8c0,3-0.5,5.9-1.6,8.7
			s-2.6,5.2-4.5,7.2c-1.9,2.1-4.2,3.7-6.7,4.9C241.9,334.2,239.1,334.8,236.2,334.8z M218,312.4c0,2.7,0.5,5.3,1.4,7.7
			c1,2.4,2.2,4.5,3.9,6.3c1.6,1.8,3.5,3.2,5.8,4.3c2.2,1,4.6,1.6,7,1.6c2.5,0,4.8-0.5,7-1.6c2.2-1.1,4.2-2.5,5.8-4.3
			c1.7-1.8,3-3.9,4-6.4c1-2.4,1.5-5,1.5-7.7c0-2.7-0.5-5.3-1.5-7.7c-1-2.4-2.3-4.6-4-6.4c-1.7-1.8-3.6-3.2-5.8-4.3
			c-2.2-1.1-4.5-1.6-7-1.6c-2.5,0-4.8,0.5-7,1.6c-2.2,1.1-4.1,2.5-5.8,4.3c-1.7,1.8-3,4-4,6.4C218.5,307,218,309.6,218,312.4z"/>
		<path fill="#FFFFFF" d="M264.8,311.9c0-3.1,0.5-6.1,1.6-8.8c1.1-2.7,2.6-5.1,4.5-7.1c1.9-2,4.2-3.6,6.8-4.8
			c2.6-1.2,5.4-1.7,8.5-1.7c3.8,0,7.2,0.9,10.1,2.7c2.9,1.8,5.2,4.2,6.7,7.3l-2.9,1c-1.3-2.6-3.3-4.6-5.9-6.1
			c-2.6-1.5-5.3-2.2-8.4-2.2c-2.5,0-4.9,0.5-7.1,1.5c-2.2,1-4.2,2.4-5.8,4.2c-1.7,1.8-2.9,3.9-3.9,6.3c-0.9,2.4-1.4,5-1.4,7.7
			c0,2.8,0.5,5.3,1.5,7.8c1,2.4,2.3,4.6,4,6.4c1.7,1.9,3.6,3.3,5.8,4.4c2.2,1.1,4.6,1.6,7,1.6c1.6,0,3.2-0.2,4.8-0.7
			c1.6-0.5,3.1-1.1,4.4-1.9c1.3-0.8,2.5-1.7,3.5-2.7c1-1,1.6-2.1,2-3.3l2.8,0.8c-0.5,1.5-1.3,2.9-2.4,4.2c-1.1,1.3-2.5,2.4-4,3.3
			c-1.5,0.9-3.2,1.7-5.1,2.2c-1.9,0.5-3.8,0.8-5.7,0.8c-3,0-5.8-0.6-8.3-1.8c-2.6-1.2-4.8-2.8-6.8-4.9c-1.9-2.1-3.5-4.5-4.6-7.3
			C265.4,318,264.8,315.1,264.8,311.9z"/>
		<path fill="#FFFFFF" d="M348.3,334h-2.9v-24.4c0-11.6-3.8-17.3-11.5-17.3c-1.9,0-3.8,0.4-5.6,1.1c-1.9,0.7-3.6,1.7-5.1,3
			c-1.6,1.3-2.9,2.8-4.1,4.6s-2,3.7-2.6,5.7V334h-2.9v-61.5h2.9v28.6c0.9-1.7,2-3.3,3.3-4.8c1.3-1.4,2.8-2.7,4.3-3.7
			c1.5-1,3.2-1.8,5-2.4c1.8-0.6,3.6-0.8,5.4-0.8c4.8,0,8.3,1.7,10.5,5.1c2.2,3.4,3.4,8.3,3.4,14.6V334z"/>
		<path fill="#FFFFFF" d="M380.9,292.9c-4,0.2-7.6,1.4-10.5,3.8c-3,2.4-5.1,5.6-6.2,9.7V334h-2.9v-43.8h2.8v11.1
			c1.5-3.1,3.5-5.6,6.1-7.6c2.5-2,5.2-3.1,8.1-3.5c0.6,0,1.1,0,1.5,0c0.4,0,0.8,0,1.2,0V292.9z"/>
		<path fill="#FFFFFF" d="M399,334.8c-2,0-3.9-0.4-5.6-1.1s-3.3-1.7-4.5-2.9c-1.3-1.2-2.3-2.6-3-4.3c-0.7-1.6-1.1-3.4-1.1-5.3
			c0-1.9,0.4-3.6,1.3-5.1c0.9-1.5,2.1-2.9,3.7-4c1.6-1.1,3.5-2,5.7-2.6c2.2-0.6,4.7-0.9,7.4-0.9c2.4,0,4.9,0.2,7.4,0.6
			c2.5,0.4,4.8,1,6.7,1.8v-4.7c0-4.4-1.3-7.9-3.7-10.5c-2.5-2.6-5.9-3.9-10.1-3.9c-2.1,0-4.4,0.5-6.8,1.4c-2.4,0.9-4.8,2.3-7.3,4
			l-1.3-2.1c5.7-3.8,10.9-5.7,15.6-5.7c5.1,0,9.1,1.5,12.1,4.5c2.9,3,4.4,7.2,4.4,12.5v22.9c0,1.2,0.5,1.9,1.5,1.9v2.7
			c-0.2,0.1-0.4,0.1-0.7,0.1c-1,0-1.8-0.3-2.5-1.1c-0.7-0.7-1.1-1.6-1.1-2.6v-3.9c-2,2.6-4.6,4.7-7.8,6.1
			C406.2,334.1,402.7,334.8,399,334.8z M399.4,332.4c3.5,0,6.8-0.7,9.7-2c2.9-1.3,5.1-3.1,6.6-5.3c0.9-1.2,1.3-2.3,1.3-3.4v-8.3
			c-4.3-1.7-9-2.5-14-2.5c-4.7,0-8.4,0.9-11.2,2.8c-2.8,1.9-4.3,4.4-4.3,7.5c0,1.6,0.3,3,0.9,4.4c0.6,1.3,1.4,2.5,2.5,3.5
			c1,1,2.3,1.8,3.7,2.4C396.1,332.1,397.7,332.4,399.4,332.4z"/>
		<path fill="#FFFFFF" d="M468,334h-2.9v-24.4c0-6-0.8-10.4-2.5-13.2c-1.7-2.8-4.4-4.2-8.1-4.2c-2,0-4,0.4-5.9,1.1
			c-1.9,0.7-3.7,1.7-5.4,3c-1.7,1.3-3.1,2.8-4.4,4.5c-1.3,1.7-2.2,3.7-2.7,5.7V334h-2.9v-43.8h2.7v10.9c0.9-1.7,2-3.3,3.4-4.8
			c1.4-1.4,2.9-2.7,4.6-3.7s3.5-1.8,5.3-2.4c1.9-0.6,3.8-0.8,5.8-0.8c4.6,0,7.9,1.6,9.9,4.9c2,3.3,3,8.2,3,14.8V334z"/>
	</g>
</g>
</svg>
