<?xml version="1.0" encoding="utf-8"?>
<!-- Generator: Adobe Illustrator 17.1.0, SVG Export Plug-In . SVG Version: 6.00 Build 0)  -->
<!DOCTYPE svg PUBLIC "-//W3C//DTD SVG 1.1//EN" "http://www.w3.org/Graphics/SVG/1.1/DTD/svg11.dtd">
<svg version="1.1" id="Layer_1" xmlns="http://www.w3.org/2000/svg" xmlns:xlink="http://www.w3.org/1999/xlink" x="0px" y="0px"
	 viewBox="0 0 428.2 67.3" enable-background="new 0 0 428.2 67.3" xml:space="preserve">
<g>
	<g opacity="0.5">
		<path d="M45.5,11.9H38v51.8h-9.7V11.9h-7.5V3.6h24.7V11.9z"/>
		<path d="M78.5,3.6L67.5,42.1v21.6h-9.7V42.1L47,3.6h9.9l5.9,25.7l6.1-25.7H78.5z"/>
		<path d="M104.8,55.4v8.2H81.9v-60h9.7v51.8H104.8z"/>
		<path d="M118.7,11.9v17.6h11.1v8.2h-11.1v17.8H132v8.2H109v-60H132v8.2H118.7z"/>
		<path d="M165.4,63.7h-9.7l-1.5-21.2c-0.3-3.2-1.9-4.2-4.2-4.2h-3.1v25.4h-9.7v-60h14.7c9,0,12.6,4.7,12.6,11.3v9.3
			c0,4.9-1.6,8.5-5.5,10.2c2.6,1.4,4,3.8,4.5,7.8L165.4,63.7z M146.9,11.9V30h4.5c2.5,0,3.3-1.3,3.3-3.3V15.1c0-1.7-0.9-3.3-3.3-3.3
			H146.9z"/>
		<path d="M209.6,42.2v9.9c0,7-4.6,12-13.7,12c-9,0-13.7-5-13.7-12V15.1c0-7,4.7-12,13.7-12c9.1,0,13.7,5,13.7,12v9.9h-9.4v-9.9
			c0-2.1-1.9-3.5-4.3-3.5c-2.4,0-3.9,1.4-3.9,3.5v37.1c0,2.4,1.5,3.5,3.9,3.5c2.4,0,4.3-1.1,4.3-3.5v-9.9H209.6z"/>
		<path d="M214.7,15.1c0-7,4.7-12,13.7-12c9.1,0,13.7,5,13.7,12v37.1c0,7-4.6,12-13.7,12c-9,0-13.7-5-13.7-12V15.1z M232.4,15.1
			c0-2.1-1.6-3.5-4-3.5c-2.4,0-3.9,1.4-3.9,3.5v37.1c0,2.1,1.5,3.5,3.9,3.5c2.4,0,4-1.4,4-3.5V15.1z"/>
		<path d="M275.3,42.2v9.9c0,7-4.6,12-13.7,12c-9,0-13.7-5-13.7-12V15.1c0-7,4.7-12,13.7-12c9.1,0,13.7,5,13.7,12v9.9h-9.4v-9.9
			c0-2.1-1.9-3.5-4.3-3.5c-2.4,0-3.9,1.4-3.9,3.5v37.1c0,2.4,1.5,3.5,3.9,3.5c2.4,0,4.3-1.1,4.3-3.5v-9.9H275.3z"/>
		<path d="M308.7,3.6v60H299v-26h-8.2v26H281v-60h9.7v25.8h8.2V3.6H308.7z"/>
		<path d="M344,63.7h-9.7l-1.5-21.2c-0.3-3.2-1.9-4.2-4.2-4.2h-3.1v25.4h-9.7v-60h14.7c9,0,12.6,4.7,12.6,11.3v9.3
			c0,4.9-1.6,8.5-5.5,10.2c2.6,1.4,4,3.8,4.5,7.8L344,63.7z M325.5,11.9V30h4.5c2.5,0,3.3-1.3,3.3-3.3V15.1c0-1.7-0.9-3.3-3.3-3.3
			H325.5z"/>
		<path d="M365.6,49h-7.9l-2.1,14.7h-9.6l11-60.5h9.7l10.8,60.5h-9.9L365.6,49z M364.4,40.8l-2.7-19.3l-2.7,19.3H364.4z"/>
		<path d="M409.4,3.6v60h-10.3L390,30.2c0.2,5.7,0.3,10.9,0.3,15.8v17.7h-8.8v-60H392l8.9,32.8c-0.2-5.5-0.3-10.5-0.3-15.2V3.6
			H409.4z"/>
	</g>
	<g>
		<path fill="#FFFFFF" d="M43.5,11.9H36v51.8h-9.7V11.9h-7.5V3.6h24.7V11.9z"/>
		<path fill="#FFFFFF" d="M76.5,3.6L65.5,42.1v21.6h-9.7V42.1L45,3.6h9.9l5.9,25.7l6.1-25.7H76.5z"/>
		<path fill="#FFFFFF" d="M102.8,55.4v8.2H79.9v-60h9.7v51.8H102.8z"/>
		<path fill="#FFFFFF" d="M116.7,11.9v17.6h11.1v8.2h-11.1v17.8H130v8.2H107v-60H130v8.2H116.7z"/>
		<path fill="#FFFFFF" d="M163.4,63.7h-9.7l-1.5-21.2c-0.3-3.2-1.9-4.2-4.2-4.2h-3.1v25.4h-9.7v-60h14.7c9,0,12.6,4.7,12.6,11.3v9.3
			c0,4.9-1.6,8.5-5.5,10.2c2.6,1.4,4,3.8,4.5,7.8L163.4,63.7z M144.9,11.9V30h4.5c2.5,0,3.3-1.3,3.3-3.3V15.1c0-1.7-0.9-3.3-3.3-3.3
			H144.9z"/>
		<path fill="#FFFFFF" d="M207.6,42.2v9.9c0,7-4.6,12-13.7,12c-9,0-13.7-5-13.7-12V15.1c0-7,4.7-12,13.7-12c9.1,0,13.7,5,13.7,12
			v9.9h-9.4v-9.9c0-2.1-1.9-3.5-4.3-3.5c-2.4,0-3.9,1.4-3.9,3.5v37.1c0,2.4,1.5,3.5,3.9,3.5c2.4,0,4.3-1.1,4.3-3.5v-9.9H207.6z"/>
		<path fill="#FFFFFF" d="M212.7,15.1c0-7,4.7-12,13.7-12c9.1,0,13.7,5,13.7,12v37.1c0,7-4.6,12-13.7,12c-9,0-13.7-5-13.7-12V15.1z
			 M230.4,15.1c0-2.1-1.6-3.5-4-3.5c-2.4,0-3.9,1.4-3.9,3.5v37.1c0,2.1,1.5,3.5,3.9,3.5c2.4,0,4-1.4,4-3.5V15.1z"/>
		<path fill="#FFFFFF" d="M273.3,42.2v9.9c0,7-4.6,12-13.7,12c-9,0-13.7-5-13.7-12V15.1c0-7,4.7-12,13.7-12c9.1,0,13.7,5,13.7,12
			v9.9h-9.4v-9.9c0-2.1-1.9-3.5-4.3-3.5c-2.4,0-3.9,1.4-3.9,3.5v37.1c0,2.4,1.5,3.5,3.9,3.5c2.4,0,4.3-1.1,4.3-3.5v-9.9H273.3z"/>
		<path fill="#FFFFFF" d="M306.7,3.6v60H297v-26h-8.2v26H279v-60h9.7v25.8h8.2V3.6H306.7z"/>
		<path fill="#FFFFFF" d="M342,63.7h-9.7l-1.5-21.2c-0.3-3.2-1.9-4.2-4.2-4.2h-3.1v25.4h-9.7v-60h14.7c9,0,12.6,4.7,12.6,11.3v9.3
			c0,4.9-1.6,8.5-5.5,10.2c2.6,1.4,4,3.8,4.5,7.8L342,63.7z M323.5,11.9V30h4.5c2.5,0,3.3-1.3,3.3-3.3V15.1c0-1.7-0.9-3.3-3.3-3.3
			H323.5z"/>
		<path fill="#FFFFFF" d="M363.6,49h-7.9l-2.1,14.7h-9.6l11-60.5h9.7l10.8,60.5h-9.9L363.6,49z M362.4,40.8l-2.7-19.3l-2.7,19.3
			H362.4z"/>
		<path fill="#FFFFFF" d="M407.4,3.6v60h-10.3L388,30.2c0.2,5.7,0.3,10.9,0.3,15.8v17.7h-8.8v-60H390l8.9,32.8
			c-0.2-5.5-0.3-10.5-0.3-15.2V3.6H407.4z"/>
	</g>
</g>
<path fill="#FFFFFF" d="M-161.6-106.5h60.1c0,16.6-6.7,31.6-17.6,42.5s-25.9,17.6-42.5,17.6V-106.5z"/>
</svg>
