<?xml version="1.0" encoding="utf-8"?>
<!-- Generator: Adobe Illustrator 17.1.0, SVG Export Plug-In . SVG Version: 6.00 Build 0)  -->
<!DOCTYPE svg PUBLIC "-//W3C//DTD SVG 1.1//EN" "http://www.w3.org/Graphics/SVG/1.1/DTD/svg11.dtd">
<svg version="1.1" xmlns="http://www.w3.org/2000/svg" xmlns:xlink="http://www.w3.org/1999/xlink" x="0px" y="0px"
	 viewBox="0 0 260.8 253" enable-background="new 0 0 260.8 253" xml:space="preserve">
<g id="Layer_2">
	<path fill="none" stroke="#FFFFFF" stroke-width="8" stroke-miterlimit="10" d="M254.3,224.8c0,0-50.3-50.1-56.3-59.8
		c0,0-26.6-28-44.4-45.7c4.1-2.4,10.2-4.5,17.5-2.3c0,0,74-84.2,74.3-85.6l-28.5-20.7c0,0-73.5,81.8-73.9,82.7c0,0,3.3,7.4-0.1,15.6
		c-2.6-2.3-4.4-3.8-5-3.9c0,0-42.3-40.8-44.6-47.2c0,0-6-7.1-8.5-11c0,0-3-3.8-7.8-4.9l0-3.3c0,0-8.1-9.4-9.7-12.1
		c0,0-1.2-5.7,1.4-7.1c0,0,5.7-6.9,30.3-1.1c0,0,8.3,3,14.1-2.1c0,0,3.4-1.5-3.4-3.1c0,0-13.6-5.5-30.9-7.3c0,0-8.8-3.1-26.6,5
		c0,0-20.9,15.6-25.2,20.8c0,0-0.8,12.1-10.5,16.3c0,0-3.5,0.7-4.2,1.3l-6.9,7.4c0,0-0.9,14.1,16.4,17.1c0,0,5.6-5,6.9-6.9
		c0,0,0.6-6.2,2.1-9.1c0,0,2.7-7.1,9.7-8.5c0,0,8.8-1,16.2,8.4c0,0,1.6,1.1,3.5,1.2c0,0,8.4,10.6,13.4,12.3c0,0,31.6,29.3,46,46.8
		c0,0,2.2,2.6,5.8,6.8c-0.1,0-0.2,0.1-0.3,0.1l-1.8,0.9c0,0-2-0.6-2.5,0.7l-1.5-0.2l-8.8,10.1c0,0-13.7,10.6-14.7,13.1
		c0,0-6.2,4.3-11.1,12.1c0,0-4.4,6.9-11.3,12.8c0,0-12.3,10.3-16.1,17.4c0,0-16,18.2-16.7,19.5c0,0-0.7-0.3-1.1,3
		c0,0-6.5,6.4-8.2,9.4c0,0-3.1,10.5,4.1,16.1c0,0,10.8,12.6,22.5,6l7.9-8.2c0,0,0.4-0.6-0.1-1.3c0,0,2.2,0.4,3.7-1.4l13-15.2
		c0,0,10.2-10.1,12.3-15.1c0,0,8.3-13.2,12.4-16.6c0,0,5.8-5.7,7-6.8c0,0,6.1-6.3,7.6-10l10.7-17.3l7.6-9.7l0.1-1.5
		c0,0,0.2,0,0.5-0.2c14.3,16.5,31.2,35.6,34.2,37.2c0,0,27.5,30.6,33.4,35.9c0,0,22.3,24,23.9,28.5c0,0,2.2,3.6,5.8,1.4
		c0,0,15.8-12.5,16.5-15.4C254.4,229.9,256.5,227.3,254.3,224.8z"/>
</g>
</svg>
