<?xml version="1.0" encoding="utf-8"?>
<!-- Generator: Adobe Illustrator 18.0.0, SVG Export Plug-In . SVG Version: 6.00 Build 0)  -->
<!DOCTYPE svg PUBLIC "-//W3C//DTD SVG 1.1//EN" "http://www.w3.org/Graphics/SVG/1.1/DTD/svg11.dtd">
<svg version="1.1" id="Layer_1" xmlns="http://www.w3.org/2000/svg" xmlns:xlink="http://www.w3.org/1999/xlink" x="0px" y="0px"
	 viewBox="0 0 74.2 66.8" enable-background="new 0 0 74.2 66.8" xml:space="preserve">
<g>
	<path fill="#191919" d="M25.5,11.7C33.9,9,44,12.4,49.2,20c-3.6,2.7-7.3,5.5-10.9,8.2c-4-3-6-3.3-8.3-1.3c-2.2,1.9-2.4,4.1-0.5,8.1
		c-6.7,5.1-13.5,10.3-20.2,15.4C-0.2,38.8-1,26.6,7.8,14.4c12.1-16.9,35.8-16,47.5-4.1c-0.3,0.3-0.6,0.5-0.9,0.8
		C50,7.6,45.2,4.9,39.6,3.7c-18.4-4-36.2,9.9-36.3,28.4c0,6.1,2.8,11.1,6.1,16.4c3.6-2.8,7-5.5,10.4-8.2c0.3-0.2,0.5-0.5,0.8-0.7
		l0,0.1c0.4-0.3,0.7-0.5,1.1-0.8c0.6-0.5,1.3-0.9,1.9-1.4c0.2-0.2,0.4-0.3,0.6-0.5c0,0,0,0,0,0c0.4-0.4,0.9-0.7,1.3-1.1
		c0.6-0.4,1.2-0.8,1.9-1.2c-0.3-0.8-0.5-1.4-0.8-2.1c0.1-1.4,0.1-2.8,0.2-4.2c0.2-0.3,0.3-0.6,0.5-0.9c0.1-0.1,0.2-0.2,0.2-0.3
		c0.4-0.5,0.8-1,1.2-1.4c0.4-0.3,0.8-0.6,1.2-0.8c0.4-0.2,0.8-0.4,1.3-0.6c0.2,0,0.4,0,0.7-0.1c1.5,0.1,3,0.2,4.4,0.3
		c0.6,0.4,1.2,0.8,1.8,1.2c0.4-0.1,0.8-0.2,1.2-0.3c0.4-0.4,0.9-0.8,1.3-1.1c1.6-1.3,3.2-2.5,4.8-3.8c-1.1-4.5-4.5-5.7-7.9-6.9
		c-0.2,0-0.4,0-0.6,0l0,0c-0.2-0.2-0.4-0.4-0.6-0.5c-0.4,0-0.9-0.1-1.3-0.1c-0.8-0.2-1.7-0.4-2.5-0.6c-0.4,0-0.9,0-1.3,0
		c-0.4,0-0.8,0-1.3,0c-0.8,0-1.6,0-2.5-0.1c-0.4,0.1-0.9,0.3-1.3,0.4c-0.2,0-0.4,0-0.6,0c0-0.2,0-0.4,0-0.6
		C25.5,12.1,25.5,11.9,25.5,11.7z"/>
	<path fill="#191919" d="M54.4,11.1c0.3-0.3,0.6-0.5,0.9-0.8c0.4,0.4,0.8,0.8,1.2,1.2c0.2,0.3,0.5,0.5,0.7,0.8c0,0-0.1-0.1-0.1-0.1
		c0.2,0.2,0.4,0.5,0.7,0.7c0,0,0,0,0,0c0.2,0.2,0.4,0.5,0.6,0.7c0,0,0,0,0,0c0.2,0.2,0.3,0.4,0.5,0.6c0.2,0.1,0.2,0.2,0.2,0.4
		c0.2,0.3,0.4,0.6,0.6,0.8c0,0,0-0.1,0-0.1c0.2,0.2,0.3,0.5,0.5,0.7c0.1,0.1,0.2,0.2,0.2,0.4c0.2,0.3,0.4,0.6,0.6,0.9c0,0,0,0,0,0
		c0.1,0.2,0.3,0.4,0.4,0.6c0.1,0.2,0.2,0.4,0.3,0.7c0.1,0.2,0.3,0.4,0.4,0.6c0.1,0.3,0.2,0.6,0.3,0.9c0.2,0.3,0.3,0.7,0.5,1
		c0.1,0.1,0.2,0.3,0.1,0.5c0.2,0.3,0.3,0.5,0.5,0.8c0.1,0.2,0.2,0.3,0.1,0.5c0.1,0.2,0.3,0.5,0.4,0.7c0.1,0.2,0.1,0.4,0.2,0.6
		c0.1,0.2,0.3,0.4,0.4,0.6c0.1,0.3,0.2,0.6,0.3,0.9c0.2,0.3,0.4,0.7,0.5,1c0.1,0.1,0.2,0.2,0.1,0.4c0.2,0.3,0.3,0.6,0.5,0.9
		c0.1,0.1,0.2,0.3,0.1,0.5c0.2,0.3,0.3,0.5,0.5,0.8c0.1,0.2,0.2,0.4,0.2,0.6c0.1,0.2,0.3,0.5,0.4,0.7c0.1,0.2,0.1,0.4,0.2,0.7
		c0.2,0.4,0.4,0.8,0.6,1.3c0.1,0.1,0.2,0.2,0.1,0.3c0.2,0.3,0.3,0.6,0.5,0.9c0.1,0.1,0.2,0.3,0.1,0.4c0.2,0.3,0.3,0.5,0.5,0.8
		c0.1,0.2,0.2,0.3,0.1,0.5c0.1,0.2,0.3,0.5,0.4,0.7c0.1,0.2,0.1,0.4,0.2,0.6c0.2,0.4,0.4,0.9,0.6,1.3l0.1,0.1l-0.1,0.2
		c0.2,0.3,0.4,0.7,0.5,1c0.1,0.1,0.2,0.2,0.1,0.4c0.2,0.3,0.3,0.6,0.5,0.9c0.1,0.1,0.2,0.3,0.1,0.5c0.2,0.3,0.3,0.5,0.5,0.8
		c0.1,0.2,0.2,0.4,0.2,0.6c0,0.2,0,0.4,0,0.5c-2.5,0.1-5,0.1-7.5,0.2c-0.2,0.5-0.4,1-0.7,1.4c-0.1,0.6-0.1,1.2-0.2,1.7
		c-0.2,0.7-0.3,1.4-0.5,2c-0.1,0.6-0.1,1.2-0.2,1.7c-0.2,0.7-0.3,1.4-0.5,2.1c-0.1,0.6-0.1,1.2-0.2,1.7c-0.2,0.7-0.3,1.4-0.5,2.1
		c-0.1,0.6-0.1,1.2-0.2,1.7c-0.2,0.7-0.3,1.4-0.5,2.1c-0.1,0.6-0.1,1.2-0.2,1.7c-0.2,0.7-0.3,1.4-0.5,2.1c0,0.5-0.1,1-0.1,1.6
		c-0.5,0-0.9,0-1.2,0C58,65.1,56.5,65,55,64.8c-0.8-0.1-1.6-0.1-2.3-0.2c-0.7-0.2-1.4-0.3-2-0.5C50,64.1,49.4,64,48.8,64
		c-0.4-0.2-0.9-0.3-1.3-0.5c-0.4-0.1-0.8-0.1-1.2-0.2c-0.3-0.1-0.6-0.3-0.9-0.4c-0.3-0.1-0.6-0.1-1-0.2c-0.4-0.2-0.9-0.3-1.3-0.5
		c-0.2,0-0.4-0.1-0.6-0.1c-0.4-0.2-0.8-0.4-1.2-0.5l-0.3,0c0,0-0.3-0.1-0.3-0.1c0.5-0.2,0.9-0.4,1.4-0.6c0.4,0.1,0.8,0.1,1.1,0.2
		c0.3,0.1,0.6,0.3,0.8,0.4c0.4,0.1,0.7,0.1,1.1,0.2c0.5,0.2,0.9,0.3,1.4,0.5c0.4,0.1,0.8,0.1,1.2,0.2c0.5,0.1,0.9,0.3,1.4,0.4
		c0.6,0.1,1.2,0.1,1.8,0.2c0.5,0.1,1,0.3,1.6,0.4c1,0.1,1.9,0.1,2.9,0.2c1.4,0.2,2.7,0.3,4.1,0.5c0.1-0.2,0.2-0.4,0.3-0.6
		c0.2-0.7,0.4-1.4,0.5-2c0.1-0.6,0.1-1.2,0.2-1.8c0.2-0.7,0.3-1.4,0.5-2c0.1-0.6,0.1-1.2,0.2-1.8c0.2-0.7,0.3-1.3,0.5-2
		c0.1-0.6,0.1-1.2,0.2-1.8c0.2-0.7,0.3-1.4,0.5-2c0.1-0.6,0.1-1.2,0.2-1.8c0.2-0.7,0.3-1.4,0.5-2c0.1-0.6,0.1-1.2,0.2-1.8
		c0.2-0.7,0.3-1.4,0.5-2c1.4-0.2,2.9-0.4,4.3-0.6c0.9-0.2,1.8-0.6,2.6-0.9c-0.2-0.3-0.3-0.6-0.5-0.9c-0.1-0.1-0.2-0.3-0.1-0.5
		c-0.2-0.3-0.3-0.5-0.5-0.8c-0.1-0.2-0.2-0.4-0.2-0.6c-0.2-0.4-0.4-0.9-0.6-1.3l0,0c-0.2-0.4-0.4-0.8-0.6-1.2
		c-0.1-0.1-0.2-0.2-0.1-0.4c-0.2-0.3-0.3-0.6-0.5-0.9c-0.1-0.1-0.2-0.3-0.1-0.5c-0.2-0.3-0.3-0.5-0.5-0.8c-0.1-0.2-0.2-0.3-0.1-0.5
		c-0.1-0.2-0.3-0.5-0.4-0.7c-0.1-0.2-0.1-0.4-0.2-0.6c-0.2-0.4-0.4-0.9-0.6-1.3l-0.1-0.1l0.1-0.2c-0.2-0.3-0.4-0.7-0.5-1
		c-0.1-0.1-0.2-0.2-0.1-0.4c-0.2-0.3-0.3-0.6-0.5-0.9C64,27.3,64,27.2,64,27c-0.2-0.3-0.3-0.5-0.5-0.8c-0.1-0.2-0.2-0.4-0.2-0.6
		c-0.1-0.2-0.3-0.5-0.4-0.7c-0.1-0.2-0.1-0.4-0.2-0.7c-0.2-0.4-0.4-0.8-0.6-1.3C62,23,62,22.8,62.1,22.7c-0.2-0.3-0.3-0.6-0.5-0.9
		c-0.1-0.1-0.2-0.3-0.1-0.5c-0.1-0.3-0.3-0.5-0.4-0.8c-0.1-0.2-0.2-0.4-0.2-0.6c-0.1-0.2-0.3-0.4-0.4-0.7c-0.1-0.2-0.2-0.4-0.2-0.6
		c-0.2-0.2-0.3-0.5-0.5-0.7c-0.2-0.1-0.2-0.3-0.2-0.5c-0.2-0.3-0.4-0.5-0.5-0.8c0,0,0-0.1,0-0.1c-0.1-0.2-0.3-0.3-0.4-0.5
		c-0.1-0.2-0.2-0.4-0.3-0.5c-0.2-0.3-0.4-0.5-0.6-0.8l0,0c-0.2-0.2-0.4-0.4-0.5-0.7c0,0-0.1-0.1-0.1-0.1c-0.1-0.2-0.3-0.3-0.4-0.5
		C55.9,12.8,55.2,11.9,54.4,11.1z"/>
	<path fill="#FDFDFD" d="M21.7,38.8c-0.4,0.3-0.7,0.5-1.1,0.8c-1.5-1.2-2.4-2.5-2.6-4.7c-0.1-1.9-1.7-3.6-2.4-5.5
		c-0.8-2.3-1.4-4.7-2.1-7c0.2-0.2,0.4-0.4,0.6-0.6c0,0,0.2,0,0.2,0c0.1-0.2,0.3-0.4,0.4-0.6c0,0,0,0,0,0c2,0.8,2.8,2.3,2.5,4.4v0
		c0.2,0.2,0.4,0.4,0.6,0.6c0,0.2,0,0.4,0,0.6c-0.3,0.3-0.5,0.6-0.9,0.9c0.3,0.4,0.6,0.7,0.9,1c0.2,0.2,0.5,0.5,0.7,0.7
		C19.6,32.5,20.6,35.7,21.7,38.8z"/>
	<path fill="#1A1A1A" d="M55,64.8c1.5,0.2,3.1,0.3,4.6,0.5C58,65.1,56.5,65,55,64.8z"/>
	<path fill="#3B3B3B" d="M20.4,14.2c0.6-0.4,1.3-0.8,1.9-1.1c0.3,0.2,0.5,0.4,0.8,0.7c0,0.2-0.1,0.4-0.2,0.5
		c-0.4,0.2-0.8,0.4-1.3,0.6c-0.2,0-0.4,0-0.6,0c-0.2-0.1-0.3-0.2-0.5-0.4C20.5,14.4,20.4,14.2,20.4,14.2z"/>
	<path fill="#161616" d="M23.1,13.7c-0.3-0.2-0.5-0.4-0.8-0.7c0.1-0.1,0.3-0.2,0.5-0.1c0.3-0.2,0.5-0.3,0.8-0.5
		c0.2-0.1,0.4-0.2,0.6-0.1c0.4,0,0.9,0,1.3,0c0,0.2,0,0.4,0,0.6c-0.2,0.1-0.3,0.1-0.5,0.1c-0.2,0.1-0.4,0.3-0.7,0.4
		C23.9,13.4,23.5,13.5,23.1,13.7z"/>
	<path fill="#3D3D3D" d="M36.3,59.6c-0.7-0.4-1.4-0.7-2.1-1.1c0.3-0.2,0.5-0.4,0.8-0.6c0.7,0.4,1.4,0.7,2.1,1.1
		C36.8,59.1,36.5,59.4,36.3,59.6z"/>
	<path fill="#161616" d="M36.3,59.6c0.3-0.2,0.5-0.4,0.8-0.7c0.4,0.1,0.7,0.2,1.1,0.3c0.2,0.1,0.5,0.3,0.7,0.4c0.2,0,0.4,0,0.5,0.1
		c0,0.2,0,0.4,0,0.5c-0.2,0-0.4,0-0.5,0c-0.3,0-0.5,0-0.8,0c-0.2,0-0.4,0-0.6-0.2c-0.2-0.1-0.5-0.3-0.7-0.4
		C36.6,59.7,36.4,59.7,36.3,59.6z"/>
	<path fill="#1A1A1A" d="M38.8,60.3c0.2,0,0.4,0,0.5,0c0.3,0,0.6-0.1,0.9-0.1c0.6,0.2,1.2,0.5,1.8,0.7c-0.5,0.2-0.9,0.4-1.4,0.6
		c-0.6-0.2-1.3-0.5-1.9-0.7C38.8,60.6,38.8,60.5,38.8,60.3z"/>
	<path fill="#1A1A1A" d="M59.3,64.1c-1.4-0.2-2.7-0.3-4.1-0.5C56.6,63.8,57.9,63.9,59.3,64.1z"/>
	<path fill="#292929" d="M19.1,15.2c0.4-0.3,0.9-0.7,1.3-1l0.1,0.3c0,0.2,0,0.5,0,0.7c-0.3,0.3-0.5,0.6-0.8,0.9c-0.2,0-0.4,0-0.6,0
		C19.1,15.7,19.1,15.5,19.1,15.2z"/>
	<path fill="#3B3B3B" d="M34.9,57.8c-0.3,0.2-0.5,0.4-0.8,0.6c-0.4-0.2-0.8-0.4-1.2-0.7l0.1-0.3c0.2-0.1,0.4-0.2,0.6-0.3
		C34.1,57.5,34.5,57.7,34.9,57.8z"/>
	<path fill="#1A1A1A" d="M62.8,52.3c0.2-0.7,0.3-1.4,0.5-2.1C63.1,50.9,63,51.6,62.8,52.3z"/>
	<path fill="#1A1A1A" d="M62.7,46.3c-0.2,0.7-0.3,1.4-0.5,2C62.4,47.6,62.6,46.9,62.7,46.3z"/>
	<path fill="#1A1A1A" d="M63.5,48.5c0.2-0.7,0.3-1.4,0.5-2C63.8,47.1,63.6,47.8,63.5,48.5z"/>
	<path fill="#1A1A1A" d="M62.1,50.1c-0.2,0.7-0.3,1.4-0.5,2C61.8,51.4,61.9,50.7,62.1,50.1z"/>
	<path fill="#1A1A1A" d="M50.6,64.2c0.7,0.2,1.4,0.3,2,0.5C52,64.5,51.3,64.3,50.6,64.2z"/>
	<path fill="#1A1A1A" d="M63.3,42.5c-0.2,0.7-0.3,1.4-0.5,2C63,43.8,63.2,43.1,63.3,42.5z"/>
	<path fill="#1A1A1A" d="M61.5,53.9c-0.2,0.7-0.3,1.3-0.5,2C61.1,55.2,61.3,54.5,61.5,53.9z"/>
	<path fill="#1A1A1A" d="M62.2,56.1c0.2-0.7,0.3-1.4,0.5-2.1C62.5,54.7,62.4,55.4,62.2,56.1z"/>
	<path fill="#181818" d="M16.7,17.4c0.4-0.4,0.8-0.8,1.2-1.3l0.1,0.1c0,0.2-0.1,0.4-0.1,0.6c-0.2,0.2-0.4,0.3-0.6,0.5
		C17.2,17.4,16.9,17.4,16.7,17.4C16.7,17.5,16.7,17.4,16.7,17.4z"/>
	<path fill="#1A1A1A" d="M60.8,57.6c-0.2,0.7-0.3,1.4-0.5,2C60.5,59,60.7,58.3,60.8,57.6z"/>
	<path fill="#1A1A1A" d="M61.6,59.9c0.2-0.7,0.3-1.4,0.5-2.1C61.9,58.5,61.7,59.2,61.6,59.9z"/>
	<path fill="#171717" d="M19.1,15.2c0,0.3,0,0.6,0.1,0.9c-0.1,0.2-0.2,0.4-0.2,0.6c-0.1,0-0.3,0-0.4-0.1c-0.1-0.1-0.3-0.2-0.5-0.3
		l-0.1-0.1C18.3,15.8,18.7,15.5,19.1,15.2z"/>
	<path fill="#1A1A1A" d="M60.2,61.4c-0.2,0.7-0.4,1.4-0.5,2C59.8,62.8,60,62.1,60.2,61.4z"/>
	<path fill="#1A1A1A" d="M60.9,63.7c0.2-0.7,0.3-1.4,0.5-2.1C61.2,62.3,61.1,63,60.9,63.7z"/>
	<path fill="#1A1A1A" d="M70.3,38.2c-0.2-0.4-0.4-0.9-0.6-1.3C69.9,37.3,70.1,37.8,70.3,38.2z"/>
	<path fill="#1A1A1A" d="M64.1,44.7c0.2-0.5,0.4-1,0.7-1.4C64.5,43.7,64.3,44.2,64.1,44.7z"/>
	<path fill="#191919" d="M16,18.6c0.2-0.4,0.5-0.8,0.7-1.2c0,0,0.1,0.1,0.1,0.1c0,0.2-0.1,0.4-0.1,0.6c0,0.2,0,0.4,0,0.6
		c0,0,0,0,0,0C16.4,18.6,16.2,18.6,16,18.6C16,18.6,16,18.6,16,18.6z"/>
	<path fill="#8C8C8C" d="M22.9,50.4c0.2,0.2,0.4,0.3,0.7,0.5c0,0.2,0,0.4,0,0.6c-0.2-0.2-0.4-0.4-0.6-0.6
		C22.9,50.7,22.9,50.5,22.9,50.4z"/>
	<path fill="#787878" d="M23.6,51.5c0-0.2,0-0.4,0-0.6c0.2,0.2,0.4,0.4,0.6,0.7c0,0.1,0.1,0.3,0.1,0.4C24,51.8,23.8,51.6,23.6,51.5z
		"/>
	<path fill="#565656" d="M26.1,52.8c0.2,0.2,0.4,0.4,0.6,0.6c0,0.2,0,0.4,0,0.5c-0.2-0.2-0.4-0.3-0.7-0.5
		C26.1,53.2,26.1,53,26.1,52.8z"/>
	<path fill="#1A1A1A" d="M65.3,30c0.2,0.4,0.4,0.9,0.6,1.3C65.7,30.8,65.5,30.4,65.3,30z"/>
	<path fill="#666666" d="M14.3,20.5c0.2-0.2,0.3-0.4,0.5-0.7c0.2,0,0.4,0,0.6,0c-0.2,0.2-0.5,0.4-0.7,0.6
		C14.5,20.5,14.4,20.5,14.3,20.5z"/>
	<path fill="#3E3E3E" d="M15.3,19.9c-0.2,0-0.4,0-0.6,0c0.2-0.2,0.4-0.4,0.6-0.6c0.1,0,0.3-0.1,0.5-0.1
		C15.7,19.4,15.5,19.6,15.3,19.9z"/>
	<path fill="#232323" d="M29.9,55.9c-0.2-0.2-0.4-0.4-0.7-0.5c0-0.2,0-0.4,0-0.5c0.2,0.1,0.4,0.3,0.6,0.4
		C29.9,55.5,29.9,55.7,29.9,55.9z"/>
	<path fill="#2B2B2B" d="M29.9,55.9c0-0.2,0-0.4,0-0.6c0.2,0.1,0.5,0.3,0.7,0.4c0,0.2,0,0.4,0,0.7C30.3,56.2,30.1,56.1,29.9,55.9z"
		/>
	<path fill="#323232" d="M31.1,56c0.2,0.1,0.5,0.3,0.7,0.4c0,0.2,0,0.5,0,0.7c-0.2-0.1-0.5-0.3-0.7-0.4C31.1,56.4,31.1,56.2,31.1,56
		z"/>
	<path fill="#1E1E1E" d="M33,57.8c-0.2-0.1-0.5-0.3-0.7-0.4c0-0.2,0-0.5,0.1-0.7c0.2,0.1,0.4,0.3,0.7,0.4c0,0.2,0,0.3,0,0.5L33,57.8
		z"/>
	<path fill="#1A1A1A" d="M67.8,32.5c-0.2-0.4-0.4-0.8-0.6-1.3C67.4,31.7,67.6,32.1,67.8,32.5z"/>
	<path fill="#1A1A1A" d="M62.2,23c0.2,0.4,0.4,0.8,0.6,1.3C62.6,23.9,62.4,23.4,62.2,23z"/>
	<path fill="#373737" d="M25.5,12.3c-0.4,0-0.9,0-1.3,0c0.4-0.2,0.9-0.4,1.3-0.5C25.5,11.9,25.5,12.1,25.5,12.3z"/>
	<path fill="#1A1A1A" d="M41.3,61.6c0.4,0.2,0.8,0.4,1.2,0.5C42.1,61.9,41.7,61.8,41.3,61.6z"/>
	<path fill="#1A1A1A" d="M46.4,62.2c-0.5-0.2-0.9-0.3-1.4-0.5C45.5,61.9,46,62,46.4,62.2z"/>
	<path fill="#1A1A1A" d="M67.9,35.7c0.2,0.4,0.4,0.8,0.6,1.2C68.3,36.5,68.1,36.1,67.9,35.7z"/>
	<path fill="#1A1A1A" d="M68.5,36.9c0.2,0.4,0.4,0.9,0.6,1.3C68.9,37.8,68.7,37.4,68.5,36.9z"/>
	<path fill="#4C4C4C" d="M28,54c0.2,0.2,0.4,0.3,0.7,0.5c0,0.2,0,0.4,0,0.6c-0.2-0.2-0.4-0.3-0.7-0.5C28,54.5,28,54.3,28,54z"/>
	<path fill="#1A1A1A" d="M49,62.8c-0.5-0.1-0.9-0.3-1.4-0.4C48.1,62.5,48.6,62.7,49,62.8z"/>
	<path fill="#1A1A1A" d="M52.3,63.4c-0.5-0.1-1-0.3-1.6-0.4C51.3,63.1,51.8,63.3,52.3,63.4z"/>
	<path fill="#1A1A1A" d="M47.5,63.5c0.4,0.2,0.9,0.3,1.3,0.5C48.4,63.8,48,63.7,47.5,63.5z"/>
	<path fill="#1A1A1A" d="M43.1,62.2c0.4,0.2,0.9,0.3,1.3,0.5C44,62.6,43.6,62.4,43.1,62.2z"/>
	<path fill="#1A1A1A" d="M64.7,28.7c0.2,0.3,0.4,0.7,0.5,1C65.1,29.4,64.9,29.1,64.7,28.7z"/>
	<path fill="#1A1A1A" d="M66.4,29.3c-0.2-0.3-0.3-0.5-0.5-0.8C66.1,28.8,66.3,29.1,66.4,29.3z"/>
	<path fill="#1A1A1A" d="M58.6,16.1c0.1,0.2,0.3,0.3,0.4,0.5C58.9,16.5,58.7,16.3,58.6,16.1z"/>
	<path fill="#1A1A1A" d="M59,16.7c0.2,0.3,0.4,0.5,0.5,0.8C59.4,17.2,59.2,17,59,16.7z"/>
	<path fill="#1A1A1A" d="M67,30.6c-0.1-0.2-0.3-0.5-0.4-0.7C66.7,30.1,66.9,30.4,67,30.6z"/>
	<path fill="#1A1A1A" d="M60.9,17.3c-0.2-0.3-0.4-0.6-0.6-0.9C60.5,16.8,60.7,17,60.9,17.3z"/>
	<path fill="#1A1A1A" d="M66.1,31.9c0.1,0.2,0.3,0.5,0.4,0.7C66.4,32.4,66.2,32.1,66.1,31.9z"/>
	<path fill="#1A1A1A" d="M66.7,33.2c0.2,0.3,0.3,0.5,0.5,0.8C67,33.7,66.8,33.4,66.7,33.2z"/>
	<path fill="#1A1A1A" d="M68.4,33.8c-0.2-0.3-0.3-0.6-0.5-0.9C68,33.1,68.2,33.5,68.4,33.8z"/>
	<path fill="#1A1A1A" d="M61.3,17.9c-0.1-0.2-0.3-0.4-0.4-0.6C61,17.5,61.1,17.7,61.3,17.9z"/>
	<path fill="#1A1A1A" d="M67.3,34.4c0.2,0.3,0.3,0.6,0.5,0.9C67.6,35,67.4,34.7,67.3,34.4z"/>
	<path fill="#1A1A1A" d="M69,35c-0.2-0.3-0.3-0.5-0.5-0.8C68.7,34.5,68.8,34.7,69,35z"/>
	<path fill="#1A1A1A" d="M69.6,36.3c-0.1-0.2-0.3-0.5-0.4-0.7C69.3,35.8,69.4,36,69.6,36.3z"/>
	<path fill="#1A1A1A" d="M59.8,18c0.2,0.2,0.3,0.5,0.5,0.7C60.1,18.4,59.9,18.2,59.8,18z"/>
	<path fill="#1C1C1C" d="M15.8,19.2c-0.2,0-0.3,0-0.5,0.1c0.2-0.2,0.4-0.4,0.6-0.6c0,0,0,0,0,0c0,0.2,0.1,0.5,0.1,0.7L15.8,19.2z"/>
	<path fill="#1A1A1A" d="M69.2,38.8c0.2,0.3,0.3,0.5,0.5,0.8C69.5,39.4,69.4,39.1,69.2,38.8z"/>
	<path fill="#1A1A1A" d="M70.9,39.5c-0.2-0.3-0.4-0.7-0.5-1C70.6,38.8,70.7,39.1,70.9,39.5z"/>
	<path fill="#FDFDFD" d="M20.6,39.5c-0.3,0.2-0.5,0.5-0.8,0.7C20.1,40,20.3,39.7,20.6,39.5z"/>
	<path fill="#1A1A1A" d="M69.8,40.1c0.2,0.3,0.3,0.6,0.5,0.9C70.1,40.7,70,40.4,69.8,40.1z"/>
	<path fill="#1A1A1A" d="M71.5,40.7c-0.2-0.3-0.3-0.6-0.5-0.9C71.2,40.1,71.4,40.4,71.5,40.7z"/>
	<path fill="#1A1A1A" d="M72.1,42c-0.2-0.3-0.3-0.5-0.5-0.8C71.8,41.5,72,41.7,72.1,42z"/>
	<path fill="#1A1A1A" d="M72.2,43.1c0-0.2,0-0.4,0-0.5c0.1,0.1,0.2,0.3,0.2,0.4C72.4,43,72.3,43.1,72.2,43.1z"/>
	<path fill="#1A1A1A" d="M61.9,19.2c-0.1-0.2-0.3-0.4-0.4-0.6C61.6,18.8,61.8,19,61.9,19.2z"/>
	<path fill="#1A1A1A" d="M60.4,19.3c0.1,0.2,0.3,0.4,0.4,0.7C60.7,19.7,60.6,19.5,60.4,19.3z"/>
	<path fill="#454545" d="M14.3,20.5c0.1,0,0.3,0,0.4,0c0,0.2,0,0.4,0,0.6l0,0c-0.2,0-0.4,0-0.6,0l0.1,0
		C14.1,20.9,14.1,20.7,14.3,20.5z"/>
	<polygon fill="#CFCFCF" points="21.1,49 21,48.9 21.1,49 	"/>
	<path fill="#1A1A1A" d="M61,20.5c0.1,0.3,0.3,0.5,0.4,0.8C61.3,21,61.2,20.8,61,20.5z"/>
	<path fill="#777777" d="M22.3,50.2c-0.2-0.2-0.4-0.4-0.6-0.6c0,0,0,0,0,0C21.9,49.8,22.1,50,22.3,50.2
		C22.3,50.2,22.3,50.2,22.3,50.2z"/>
	<path fill="#777777" d="M22.9,50.4c0,0.2,0,0.3,0,0.5c-0.2-0.2-0.4-0.4-0.6-0.6c0,0,0,0.1,0,0.1C22.5,50.3,22.7,50.3,22.9,50.4z"/>
	<path fill="#1A1A1A" d="M62.7,21.1c-0.2-0.3-0.3-0.7-0.5-1C62.3,20.5,62.5,20.8,62.7,21.1z"/>
	<path fill="#A8A8A8" d="M13.5,21.7c0.2-0.2,0.4-0.4,0.6-0.7c0,0-0.1,0-0.1,0c0.1,0.2,0.1,0.4,0.2,0.7c0,0-0.2,0-0.2,0
		C13.9,21.7,13.7,21.7,13.5,21.7z"/>
	<path fill="#AFAFAF" d="M13.5,21.7c0.2,0,0.3,0,0.5,0c-0.2,0.2-0.4,0.4-0.6,0.6C13.5,22.2,13.5,22,13.5,21.7z"/>
	<path fill="#474747" d="M24.2,52c0-0.1,0-0.3-0.1-0.4c0.2,0.2,0.4,0.4,0.6,0.5l0.1-0.1l-0.3,0.1L24.2,52z"/>
	<path fill="#303030" d="M25.5,52.7c-0.2-0.2-0.5-0.5-0.7-0.7l-0.1,0.1C25,52.3,25.2,52.6,25.5,52.7L25.5,52.7z"/>
	<path fill="#494949" d="M26.1,52.8c0,0.2,0,0.4,0,0.6c-0.2-0.2-0.4-0.4-0.6-0.6l0,0.1C25.7,52.8,25.9,52.8,26.1,52.8z"/>
	<path fill="#1A1A1A" d="M61.6,21.8c0.2,0.3,0.3,0.6,0.5,0.9C61.9,22.4,61.7,22.1,61.6,21.8z"/>
	<path fill="#212121" d="M26.8,53.9c0-0.2,0-0.4,0-0.5c0.2,0.2,0.4,0.4,0.6,0.7c0,0,0,0,0,0C27.2,54,27,53.9,26.8,53.9z"/>
	<path fill="#282828" d="M28,54c0,0.2,0,0.4,0,0.6c-0.2-0.2-0.4-0.5-0.6-0.7c0,0,0,0,0,0C27.6,54,27.8,54,28,54z"/>
	<path fill="#1A1A1A" d="M63.3,22.4c-0.2-0.3-0.3-0.5-0.5-0.8C63,21.8,63.1,22.1,63.3,22.4z"/>
	<path fill="#1A1A1A" d="M63.9,23.6c-0.1-0.2-0.3-0.5-0.4-0.7C63.6,23.1,63.7,23.4,63.9,23.6z"/>
	<path fill="#1A1A1A" d="M64.4,24.9c-0.1-0.2-0.3-0.4-0.4-0.6C64.2,24.5,64.3,24.7,64.4,24.9z"/>
	<path fill="#191919" d="M28.6,55.2c0-0.2,0-0.4,0-0.6c0.2,0.1,0.4,0.2,0.6,0.3c0,0.2,0,0.4,0,0.5C29,55.4,28.8,55.3,28.6,55.2z"/>
	<path fill="#1A1A1A" d="M63,24.9c0.1,0.2,0.3,0.5,0.4,0.7C63.2,25.4,63.1,25.2,63,24.9z"/>
	<path fill="#161616" d="M31.1,56c0,0.2,0,0.5,0,0.7c-0.2-0.1-0.4-0.2-0.6-0.3c0-0.2,0-0.4,0-0.7C30.8,55.8,31,55.8,31.1,56z"/>
	<path fill="#1A1A1A" d="M63.5,26.2c0.2,0.3,0.3,0.5,0.5,0.8C63.8,26.7,63.7,26.5,63.5,26.2z"/>
	<path fill="#171717" d="M32.4,56.7c0,0.2,0,0.5-0.1,0.7c-0.2,0-0.4-0.1-0.5-0.3c0-0.2,0-0.5,0-0.7C32,56.5,32.2,56.6,32.4,56.7z"/>
	<path fill="#1A1A1A" d="M65.2,26.8c-0.2-0.3-0.4-0.7-0.5-1C64.9,26.1,65.1,26.5,65.2,26.8z"/>
	<path fill="#888888" d="M21.1,49c0.2,0.2,0.4,0.4,0.6,0.6c0,0,0,0,0,0C21.5,49.4,21.3,49.2,21.1,49C21.1,49,21.1,49,21.1,49z"/>
	<path fill="#1A1A1A" d="M64.1,27.5c0.2,0.3,0.3,0.6,0.5,0.9C64.4,28,64.3,27.8,64.1,27.5z"/>
	<path fill="#1A1A1A" d="M65.8,28.1c-0.2-0.3-0.3-0.6-0.5-0.9C65.5,27.5,65.7,27.8,65.8,28.1z"/>
	<path fill="#1A1A1A" d="M57.2,12.3c-0.2-0.3-0.5-0.5-0.7-0.8C56.7,11.7,56.9,12,57.2,12.3z"/>
	<path fill="#373737" d="M23.6,12.4c-0.3,0.2-0.5,0.3-0.8,0.5C23.1,12.7,23.3,12.6,23.6,12.4z"/>
	<path fill="#3C3C3C" d="M38.8,59.7c-0.2-0.1-0.5-0.3-0.7-0.4C38.3,59.4,38.6,59.5,38.8,59.7z"/>
	<path fill="#3C3C3C" d="M36.8,59.7c0.2,0.1,0.5,0.3,0.7,0.4C37.2,60,37,59.9,36.8,59.7z"/>
	<path fill="#3C3C3C" d="M40.2,60.2c-0.3,0-0.6,0.1-0.9,0.1c0-0.2,0-0.4,0-0.5C39.6,59.9,39.9,60.1,40.2,60.2z"/>
	<path fill="#3C3C3C" d="M38.8,60.3c0,0.2,0,0.3-0.1,0.5c-0.2-0.1-0.5-0.3-0.7-0.4C38.3,60.3,38.6,60.3,38.8,60.3z"/>
	<path fill="#1A1A1A" d="M57.8,12.9c-0.2-0.2-0.4-0.5-0.7-0.7C57.3,12.4,57.5,12.7,57.8,12.9z"/>
	<path fill="#1A1A1A" d="M44,61.5c-0.3-0.1-0.6-0.3-0.8-0.4C43.5,61.3,43.8,61.4,44,61.5z"/>
	<path fill="#1A1A1A" d="M58.3,13.5c-0.2-0.2-0.4-0.5-0.6-0.7C57.9,13.1,58.1,13.3,58.3,13.5z"/>
	<path fill="#1A1A1A" d="M56.7,13.6c0.2,0.1,0.3,0.3,0.4,0.5C57,13.9,56.8,13.7,56.7,13.6z"/>
	<path fill="#1A1A1A" d="M58.8,14.1c-0.2-0.2-0.3-0.4-0.5-0.6C58.5,13.8,58.6,14,58.8,14.1z"/>
	<path fill="#1A1A1A" d="M45.4,62.9c0.3,0.1,0.6,0.3,0.9,0.4C46,63.2,45.7,63,45.4,62.9z"/>
	<path fill="#1A1A1A" d="M57.2,14.1c0.2,0.2,0.4,0.4,0.5,0.7C57.5,14.6,57.3,14.4,57.2,14.1z"/>
	<path fill="#1A1A1A" d="M57.7,14.8c0.2,0.3,0.4,0.5,0.6,0.8C58.1,15.3,57.9,15.1,57.7,14.8z"/>
	<path fill="#1A1A1A" d="M59.7,15.4c-0.2-0.3-0.4-0.6-0.6-0.8C59.2,14.9,59.5,15.1,59.7,15.4z"/>
	<path fill="#1A1A1A" d="M60.1,16.1c-0.2-0.2-0.3-0.5-0.5-0.7C59.8,15.6,60,15.8,60.1,16.1z"/>
	<path fill="#161616" d="M33.1,57.6c0-0.2,0-0.3,0-0.5c0.2,0,0.4,0.1,0.6,0.2C33.5,57.4,33.3,57.5,33.1,57.6z"/>
	<path fill="#535353" d="M37.5,13.5c3.4,1.2,6.8,2.4,7.9,6.9c-1.6,1.3-3.2,2.5-4.8,3.8c0-0.2,0-0.4,0-0.6
		C39.6,20.3,38.5,16.9,37.5,13.5z"/>
	<path fill="#F1F1F1" d="M18.5,16.5c0.1,0,0.3,0,0.4,0.1c2.2,6.4,4.4,12.8,6.6,19.3c-0.4,0.4-0.9,0.7-1.3,1.1
		c-0.7-2.4-1.4-4.8-2.1-7.2c-1.5-0.1-2.5-0.2-3.5-0.3c-0.2-0.2-0.5-0.5-0.7-0.7l0.2-0.1c1,0.1,2,0.1,3,0.2c0.2-0.3,0.3-0.6,0.5-0.9
		c-0.6-0.4-1.2-0.7-1.8-1.1c0.3-0.5,0.9-1.2,0.7-1.5c-1-2.5-2.1-4.9-3.1-7.4c0-0.2,0.1-0.4,0.1-0.6c0.2-0.2,0.4-0.3,0.6-0.5
		C18.1,16.8,18.3,16.6,18.5,16.5z"/>
	<path fill="#ECECEC" d="M25.5,35.8c-2.2-6.4-4.4-12.8-6.6-19.3c0-0.2,0.1-0.4,0.2-0.6c0.2,0,0.4,0,0.6,0c0.9,1.5,1.7,3,2.6,4.5
		c1.1,2.7,2.1,5.5,3.2,8.2c0.4,1.3,0.8,2.5,1.2,3.8c0.2,0.7,0.5,1.3,0.8,2.1C26.7,35.1,26.1,35.5,25.5,35.8z"/>
	<path fill="#F9F9F9" d="M18.5,29.4c1,0.1,2,0.2,3.5,0.3c0.7,2.4,1.4,4.8,2.1,7.2c0,0,0,0,0,0c-0.2,0.2-0.4,0.3-0.6,0.5
		c-0.6,0.5-1.3,0.9-1.9,1.4C20.6,35.7,19.6,32.5,18.5,29.4z"/>
	<path fill="#D8D8D8" d="M21.7,14.8c0.4-0.2,0.8-0.4,1.3-0.6c0.5,1.8,0.9,3.5,1.4,5.3c0.4,0.6,0.7,1.3,1.1,1.9
		c0.2,0.4,0.4,0.7,0.6,1.1l0,0c0.5,1.6,0.9,3.1,1.4,4.7c0,0.1,0,0.3-0.2,0.3c-0.2,0-0.4,0-0.6,0c-0.4-0.4-0.8-0.8-1.3-1.3
		c0,0,0,0,0,0c-0.4-1.1-0.8-2.1-1.3-3.2c-0.2-0.8-0.4-1.7-0.6-2.5C22.9,18.6,22.3,16.7,21.7,14.8z"/>
	<path fill="#AAAAAA" d="M31.8,24.2c-0.2,0-0.4,0-0.7,0.1c-0.6-1.9-1.3-3.8-1.9-5.7c-0.7-1.9-1.3-3.8-2-5.8l-0.1-0.1
		c1.5,0.1,2.4,1,2.9,2.5C31,18,32,20.8,33,23.6C32.6,23.8,32.2,24,31.8,24.2z"/>
	<path fill="#969696" d="M31.8,24.2c0.4-0.2,0.8-0.4,1.2-0.6c1.6-0.6,0.8-1.7,0.5-2.6c-1.1-2.9-2.4-5.8-3.6-8.7c0.4,0,0.8,0,1.3,0
		c1,2.5,2,5,3,7.6c0.2,0.2,0.5,0.4,0.7,0.6c0.5,1.3,0.9,2.6,1.4,3.9C34.8,24.4,33.3,24.3,31.8,24.2z"/>
	<path fill="#9B9B9B" d="M29.9,12.4c1.2,2.9,2.4,5.8,3.6,8.7c0.4,0.9,1.1,2-0.5,2.6c-1-2.8-1.9-5.6-2.8-8.4
		c-0.5-1.5-1.4-2.3-2.9-2.5c0.1-0.2,0.1-0.3,0.2-0.5C28.3,12.3,29.1,12.4,29.9,12.4z"/>
	<path fill="#666666" d="M34.9,12.9c0.4,0,0.9,0.1,1.3,0.1c0.2,0.2,0.4,0.4,0.6,0.5l0,0c0.6,2.5,1.2,5.1,1.9,7.6
		c-0.4-0.4-0.8-0.8-1.3-1.3c-0.4-0.6-0.8-1.2-1.1-1.9c-0.7-0.4-1.3-0.8-2-1.2c0.2-0.2,0.4-0.5,0.6-0.7C34.9,15,34.9,14,34.9,12.9z"
		/>
	<path fill="#818181" d="M34.9,16.1c-0.2,0.2-0.4,0.5-0.6,0.7c0,1,0,2,0,3l-0.2,0.1c-1-2.5-2-5-3-7.6c0.4,0,0.9,0,1.3,0
		C33.3,13.6,34.1,14.8,34.9,16.1z"/>
	<path fill="#565656" d="M38.7,21.1c-0.6-2.5-1.2-5.1-1.9-7.6c0.2,0,0.4,0,0.6,0c1.1,3.4,2.1,6.8,3.2,10.1
		C40,22.8,39.4,22,38.7,21.1z"/>
	<path fill="#B8B8B8" d="M24.9,13c0.2,0,0.4,0,0.5-0.1c0.2,0,0.4,0,0.6,0c0.2,0.1,0.4,0.1,0.6,0.2c0.6,1.9,1.3,3.8,1.9,5.6
		c0.4,1.5,0.8,3,1.3,4.4c-0.4-0.4-0.8-0.8-1.3-1.3c-0.8-3-1-6.3-3.9-8.3C24.8,13.3,24.8,13.1,24.9,13z"/>
	<path fill="#747474" d="M36.3,18c0.4,0.6,0.8,1.2,1.1,1.9c0.6,1.9,1.2,3.7,1.8,5.6c-0.4,0.1-0.8,0.2-1.2,0.3
		c-0.8-1.9-1.6-3.8-2.5-5.8l0-0.1C35.8,19.2,36.1,18.6,36.3,18z"/>
	<path fill="#7A7A7A" d="M35.6,19.9c0.8,1.9,1.6,3.8,2.5,5.8c-0.6-0.4-1.2-0.8-1.8-1.2c-0.5-1.3-0.9-2.6-1.4-3.9
		C35.1,20.3,35.4,20.1,35.6,19.9z"/>
	<path fill="#676767" d="M39.3,25.4c-0.6-1.9-1.2-3.7-1.8-5.6c0.4,0.4,0.8,0.8,1.3,1.3c0.6,0.8,1.3,1.7,1.9,2.5c0,0.2,0,0.4,0,0.6
		C40.2,24.7,39.7,25,39.3,25.4z"/>
	<path fill="#C5C5C5" d="M28.6,21.8c0.4,0.4,0.8,0.8,1.3,1.3c0,0.6,0,1.2,0,1.8c-0.4,0.3-0.8,0.6-1.2,0.8c-0.9-1.1-1.7-2.2-2.6-3.3
		c0,0,0,0,0,0c0-0.2,0-0.4,0-0.6c0.4-0.2,0.8-0.4,1.2-0.7C27.7,21.4,28.2,21.6,28.6,21.8z"/>
	<path fill="#B7B7B7" d="M29.9,24.8c0-0.6,0-1.2,0-1.8c-0.4-1.5-0.8-3-1.3-4.4c0.2,0,0.4,0,0.6,0c0.6,1.9,1.3,3.8,1.9,5.7
		C30.7,24.4,30.3,24.6,29.9,24.8z"/>
	<path fill="#E2E2E2" d="M25.5,26.2c0.4,0.4,0.8,0.8,1.3,1.3c0,0.3,0.1,0.6,0.1,0.9c-0.1,1.4-0.1,2.8-0.2,4.2
		c-0.4-1.3-0.8-2.5-1.2-3.8C25.5,27.9,25.5,27,25.5,26.2z"/>
	<path fill="#CECECE" d="M26.1,22.4c0.9,1.1,1.7,2.2,2.6,3.3c-0.4,0.5-0.8,1-1.2,1.4C27,25.5,26.6,24,26.1,22.4z"/>
	<path fill="#717171" d="M34.9,16.1c-0.8-1.2-1.7-2.5-2.5-3.7c0.8,0.2,1.7,0.4,2.5,0.6C34.9,14,34.9,15,34.9,16.1z"/>
	<path fill="#373737" d="M26.7,12.9c-0.2-0.1-0.4-0.1-0.6-0.2c0.4-0.1,0.9-0.3,1.3-0.4c-0.1,0.2-0.1,0.3-0.2,0.5l0.1,0.1
		C27.1,12.8,26.9,12.9,26.7,12.9z"/>
	<path fill="#F1F1F1" d="M23.6,37.4c0.2-0.2,0.4-0.3,0.6-0.5C24,37.1,23.8,37.2,23.6,37.4z"/>
	<path fill="#CECECE" d="M26.8,28.3c0-0.3-0.1-0.6-0.1-0.9c0.2,0,0.4,0,0.6,0C27.2,27.7,27,28,26.8,28.3z"/>
	<path fill="#535353" d="M36.9,13.5c-0.2-0.2-0.4-0.4-0.6-0.5C36.4,13.2,36.7,13.3,36.9,13.5z"/>
	<path fill="#F8F8F8" d="M17.3,18c1.1,2.4,2.2,4.9,3.1,7.4c0.1,0.4-0.5,1-0.7,1.5c-0.6,0-1.2,0-1.7,0l-0.1-0.1c0-0.2,0-0.4,0-0.6
		c0.2-0.7,0.7-1.5,0.5-2.1c-0.4-1.7-1.2-3.2-1.8-4.9c0-0.2,0-0.4,0-0.6l0,0C16.9,18.4,17.1,18.2,17.3,18L17.3,18z"/>
	<path fill="#F9F9F9" d="M16.6,19.2c0.6,1.6,1.3,3.2,1.8,4.9c0.2,0.6-0.3,1.4-0.5,2.1c-0.2-0.2-0.4-0.4-0.6-0.6v0
		c0.2-2.1-0.5-3.6-2.5-4.4c0-0.2,0-0.4,0-0.6c0.2-0.2,0.5-0.4,0.7-0.6c0.2-0.2,0.3-0.5,0.5-0.7c0,0,0.2,0.1,0.2,0.1
		C16.2,19.2,16.4,19.2,16.6,19.2z"/>
	<path fill="#F9F9F9" d="M17.8,28.7c-0.3-0.3-0.5-0.6-0.9-1c0.4-0.4,0.6-0.7,0.9-0.9c0,0,0.1,0.1,0.1,0.1c0,0.6,0,1.2,0,1.8
		L17.8,28.7z"/>
	<path fill="#F9F9F9" d="M14.3,21.7c-0.1-0.2-0.1-0.4-0.2-0.7c0.2,0,0.4,0,0.6,0C14.6,21.3,14.4,21.5,14.3,21.7z"/>
	<path fill="#F9F9F9" d="M17.2,25.6L17.2,25.6L17.2,25.6z"/>
	<path fill="#E3E3E3" d="M21.7,14.8c0.6,1.9,1.3,3.8,1.9,5.7c-0.4,0-0.8,0-1.3,0c-0.9-1.5-1.7-3-2.6-4.5c0.3-0.3,0.5-0.6,0.8-0.9
		c0.2-0.1,0.4-0.2,0.6-0.3C21.2,14.8,21.5,14.8,21.7,14.8z"/>
	<path fill="#CDCDCD" d="M24.3,19.4c-0.5-1.8-0.9-3.5-1.4-5.3c0.1-0.2,0.1-0.3,0.2-0.5c0.4-0.1,0.8-0.2,1.2-0.3c0,0-0.1,0.3-0.1,0.3
		c0.4,0.8,0.9,1.6,1.3,2.4c-0.2,0.9-0.4,1.7-0.6,2.6C24.7,18.9,24.5,19.2,24.3,19.4z"/>
	<path fill="#171717" d="M21,14.8c-0.2,0.1-0.4,0.2-0.6,0.3c0-0.2,0-0.5,0-0.7C20.7,14.5,20.9,14.7,21,14.8z"/>
	<path fill="#373737" d="M24.9,13c-0.1,0.2-0.2,0.3-0.2,0.5c-0.2,0-0.3,0.1-0.5,0.2c0,0,0.1-0.3,0.1-0.3
		C24.5,13.2,24.7,13.1,24.9,13z"/>
	<path fill="#171717" d="M18.5,16.5c-0.2,0.1-0.4,0.2-0.5,0.4c0-0.2,0-0.4,0.1-0.6C18.2,16.3,18.4,16.4,18.5,16.5z"/>
	<path fill="#181818" d="M17.4,17.4c0,0.2,0,0.4-0.1,0.6c0,0,0,0,0,0c-0.2,0-0.4,0-0.6,0c0-0.2,0.1-0.4,0.1-0.6
		C16.9,17.4,17.2,17.4,17.4,17.4z"/>
	<path fill="#F1F1F1" d="M16.6,18c0.2,0,0.4,0,0.6,0c-0.2,0.2-0.4,0.4-0.6,0.6C16.7,18.4,16.7,18.2,16.6,18z"/>
	<path fill="#F1F1F1" d="M16.6,19.2c-0.2,0-0.4,0-0.5,0c0-0.2-0.1-0.5-0.1-0.7c0.2,0,0.4,0,0.7,0.1C16.6,18.8,16.6,19,16.6,19.2z"/>
	<path fill="#242424" d="M17.9,28.7c0-0.6,0-1.2,0-1.8c0.6,0,1.2,0,1.7,0c0.6,0.4,1.2,0.7,1.8,1.1c-0.2,0.3-0.3,0.6-0.5,0.9
		C20,28.8,19,28.7,17.9,28.7z"/>
	<path fill="#E4E4E4" d="M22.3,20.5c0.4,0,0.8,0,1.3,0c0.2,0.8,0.4,1.7,0.6,2.5c0.4,1.1,0.8,2.1,1.3,3.2l0,0c0,0.8,0,1.7,0,2.5
		C24.4,26,23.4,23.2,22.3,20.5z"/>
	<path fill="#323232" d="M24.3,19.4c0.2-0.3,0.3-0.5,0.5-0.8c0.5,0,0.9,0,1.4-0.1c0.2,0.2,0.4,0.4,0.5,0.6c0.1,0.2,0.1,0.5,0.2,0.7
		c0.1,0.4,0.3,0.9,0.4,1.3c0,0,0,0,0,0c-0.4,0.2-0.8,0.4-1.2,0.7c-0.2-0.2-0.4-0.3-0.6-0.5C25.1,20.7,24.7,20.1,24.3,19.4z"/>
	<path fill="#E2E2E2" d="M25.5,26.2c-0.4-1.1-0.8-2.1-1.3-3.2C24.6,24.1,25,25.1,25.5,26.2z"/>
	<path fill="#D5D5D5" d="M25.5,21.3c0.2,0.2,0.4,0.3,0.6,0.5c0,0.2,0,0.4,0,0.6C25.9,22,25.7,21.7,25.5,21.3z"/>
	<path fill="#B5B5B5" d="M26.7,12.9c0.2-0.1,0.4-0.1,0.6-0.1c0.7,1.9,1.3,3.8,2,5.8c-0.2,0-0.4,0-0.6,0C28,16.7,27.4,14.8,26.7,12.9
		z"/>
	<path fill="#747474" d="M35.6,19.9c-0.2,0.2-0.5,0.4-0.7,0.7c-0.2-0.2-0.5-0.4-0.7-0.6c0,0,0.2-0.1,0.2-0.1
		C34.8,19.8,35.2,19.8,35.6,19.9C35.6,19.9,35.6,19.9,35.6,19.9z"/>
	<path fill="#1F1F1F" d="M35.6,19.9c-0.4,0-0.8,0-1.2,0c0-1,0-2,0-3c0.7,0.4,1.3,0.8,2,1.2C36.1,18.6,35.8,19.2,35.6,19.9z"/>
	<path fill="#C3C3C3" d="M26.9,19.9c-0.1-0.2-0.1-0.5-0.2-0.7c0-0.2,0-0.4,0-0.6c-0.4-0.8-0.8-1.7-1.2-2.5c-0.4-0.8-0.9-1.6-1.3-2.4
		c0.2-0.1,0.3-0.1,0.5-0.2c2.9,2,3.1,5.3,3.9,8.3c-0.4-0.2-0.9-0.4-1.3-0.6c0,0,0,0,0,0C27.2,20.8,27,20.3,26.9,19.9z"/>
	<path fill="#C8C8C8" d="M25.5,16.1c0.4,0.8,0.8,1.7,1.2,2.5c-0.2,0-0.3,0-0.5,0c-0.5,0-0.9,0-1.4,0.1C25,17.8,25.3,16.9,25.5,16.1z
		"/>
	<path fill="#B8B8B8" d="M26.9,19.9c0.1,0.4,0.3,0.9,0.4,1.3C27.2,20.8,27,20.3,26.9,19.9z"/>
	<path fill="#B8B8B8" d="M26.2,18.6c0.2,0,0.3,0,0.5,0c0,0.2,0,0.4,0,0.6C26.6,19,26.4,18.8,26.2,18.6z"/>
</g>
</svg>
