<?xml version="1.0" encoding="utf-8"?>
<!-- Generator: Adobe Illustrator 17.1.0, SVG Export Plug-In . SVG Version: 6.00 Build 0)  -->
<!DOCTYPE svg PUBLIC "-//W3C//DTD SVG 1.1//EN" "http://www.w3.org/Graphics/SVG/1.1/DTD/svg11.dtd">
<svg version="1.1" id="Layer_2" xmlns="http://www.w3.org/2000/svg" xmlns:xlink="http://www.w3.org/1999/xlink" x="0px" y="0px"
	 viewBox="-530.7 307 296.6 176.8" enable-background="new -530.7 307 296.6 176.8" xml:space="preserve">
<g>
	<g>
		<path fill="#FFFFFF" d="M-435.1,478.5h-1.2l-0.5-2.7h-4.7l-0.6,2.7h-1.2l3.3-15.3h1.7L-435.1,478.5z M-437.1,474.6l-2.1-10.1
			l-2.1,10.1H-437.1z"/>
		<path fill="#FFFFFF" d="M-417.1,463.2l-2.6,15.3h-1.6l-2.1-12.1l-2.1,12.1h-1.6l-2.6-15.3h1.1l2.3,13.7l2.4-13.7h0.9l2.4,13.7
			l2.3-13.7H-417.1z"/>
		<path fill="#FFFFFF" d="M-409.8,478.5h-5.4v-15.3h5.4v1.1h-4.4v5.6h3.3v1.1h-3.3v6.4h4.4V478.5z"/>
		<path fill="#FFFFFF" d="M-401.1,468.7c0,0.9-0.4,1.5-1.1,1.7c0.7,0.2,1.1,0.8,1.1,1.7v4.2c0,1.2-1,2.2-2.2,2.2h-4.4v-15.3h4.4
			c1.2,0,2.2,1,2.2,2.2V468.7z M-402.2,465.4c0-0.6-0.5-1.1-1.1-1.1h-3.3v5.6h3.3c0.6,0,1.1-0.5,1.1-1.1V465.4z M-402.2,472
			c0-0.6-0.5-1.1-1.1-1.1h-3.3v6.4h3.3c0.6,0,1.1-0.5,1.1-1.1V472z"/>
		<path fill="#FFFFFF" d="M-387.6,470.2c0,1.2-1,2.2-2.2,2.2h-3.3v6.1h-1.1v-15.3h4.4c1.2,0,2.2,1,2.2,2.2L-387.6,470.2
			L-387.6,470.2z M-388.7,465.4c0-0.6-0.5-1.1-1.1-1.1h-3.3v7h3.3c0.6,0,1.1-0.5,1.1-1.1V465.4z"/>
		<path fill="#FFFFFF" d="M-378.9,476.3c0,1.2-1,2.2-2.2,2.2h-2.2c-1.2,0-2.2-1-2.2-2.2v-10.9c0-1.2,1-2.2,2.2-2.2h2.2
			c1.2,0,2.2,1,2.2,2.2V476.3z M-380,465.4c0-0.6-0.5-1.1-1.1-1.1h-2.2c-0.6,0-1.1,0.5-1.1,1.1v10.9c0,0.6,0.5,1.1,1.1,1.1h2.2
			c0.6,0,1.1-0.5,1.1-1.1V465.4z"/>
		<path fill="#FFFFFF" d="M-371.3,471.8l1.6,6.7h-1.2l-1.4-6.6h-2.8v6.6h-1.1v-15.3h4.4c1.2,0,2.2,1,2.2,2.2v4.3
			C-369.8,470.6-370.4,471.5-371.3,471.8z M-370.8,465.4c0-0.6-0.5-1.1-1.1-1.1h-3.3v6.4h3.3c0.6,0,1.1-0.5,1.1-1.1V465.4z"/>
		<path fill="#FFFFFF" d="M-361.1,464.3h-2.7v14.1h-1.1v-14.1h-2.7v-1.1h6.5L-361.1,464.3L-361.1,464.3z"/>
		<path fill="#FFFFFF" d="M-353.5,464.3h-4.4v5.6h3.3v1.1h-3.3v7.5h-1.1v-15.3h5.4V464.3z"/>
		<path fill="#FFFFFF" d="M-344.9,476.3c0,1.2-1,2.2-2.2,2.2h-2.2c-1.2,0-2.2-1-2.2-2.2v-10.9c0-1.2,1-2.2,2.2-2.2h2.2
			c1.2,0,2.2,1,2.2,2.2V476.3z M-346,465.4c0-0.6-0.5-1.1-1.1-1.1h-2.2c-0.6,0-1.1,0.5-1.1,1.1v10.9c0,0.6,0.5,1.1,1.1,1.1h2.2
			c0.6,0,1.1-0.5,1.1-1.1V465.4z"/>
		<path fill="#FFFFFF" d="M-336.8,478.5h-5.4v-15.3h1.1v14.1h4.4V478.5z"/>
		<path fill="#FFFFFF" d="M-333.6,478.5h-1.1v-15.3h1.1V478.5z"/>
		<path fill="#FFFFFF" d="M-324.4,476.3c0,1.2-1,2.2-2.2,2.2h-2.2c-1.2,0-2.2-1-2.2-2.2v-10.9c0-1.2,1-2.2,2.2-2.2h2.2
			c1.2,0,2.2,1,2.2,2.2V476.3z M-325.5,465.4c0-0.6-0.5-1.1-1.1-1.1h-2.2c-0.6,0-1.1,0.5-1.1,1.1v10.9c0,0.6,0.5,1.1,1.1,1.1h2.2
			c0.6,0,1.1-0.5,1.1-1.1V465.4z"/>
	</g>
	<path fill="none" stroke="#FFFFFF" stroke-miterlimit="10" d="M-346.1,437.4"/>
	<path fill="none" stroke="#FFFFFF" stroke-miterlimit="10" d="M-349.4,365.3"/>
	<path fill="none" stroke="#FFFFFF" stroke-miterlimit="10" d="M-360.9,352.7c0,0-9.3-9.3-10.4-11.1c0,0-4.9-5.2-8.2-8.4
		c0.7-0.4,1.9-0.8,3.2-0.4c0,0,13.7-15.6,13.7-15.8l-5.3-3.8c0,0-13.6,15.1-13.7,15.3c0,0,0.6,1.4,0,2.9c-0.5-0.4-0.8-0.7-0.9-0.7
		c0,0-7.8-7.6-8.3-8.7c0,0-1.1-1.3-1.6-2c0,0-0.6-0.7-1.4-0.9v-0.6c0,0-1.5-1.7-1.8-2.2c0,0-0.2-1,0.3-1.3c0,0,1-1.3,5.6-0.2
		c0,0,1.5,0.6,2.6-0.4c0,0,0.6-0.3-0.6-0.6c0,0-2.5-1-5.7-1.3c0,0-1.6-0.6-4.9,0.9c0,0-3.9,2.9-4.7,3.9c0,0-0.1,2.2-1.9,3
		c0,0-0.6,0.1-0.8,0.2l-1.3,1.4c0,0-0.1,2.6,3,3.1c0,0,1-0.9,1.3-1.3c0,0,0.1-1.1,0.4-1.7c0,0,0.5-1.3,1.8-1.6c0,0,1.6-0.2,3,1.6
		c0,0,0.3,0.2,0.6,0.2c0,0,1.6,2,2.5,2.3c0,0,5.9,5.4,8.5,8.7c0,0,0.4,0.5,1.1,1.3h0l-0.3,0.1c0,0-0.4-0.1-0.4,0.1l-0.3,0l-1.6,1.9
		c0,0-2.5,2-2.7,2.4c0,0-1.1,0.8-2,2.2c0,0-0.8,1.3-2.1,2.4c0,0-2.3,1.9-3,3.2c0,0-3,3.4-3.1,3.6c0,0-0.1,0-0.2,0.6
		c0,0-1.2,1.2-1.5,1.7c0,0-0.6,1.9,0.7,3c0,0,2,2.3,4.1,1.1l1.4-1.5c0,0,0.1-0.1,0-0.2c0,0,0.4,0.1,0.7-0.3l2.4-2.8
		c0,0,1.9-1.9,2.3-2.8c0,0,1.5-2.4,2.3-3.1c0,0,1.1-1,1.3-1.3c0,0,1.1-1.1,1.4-1.9l2-3.2l1.4-1.8v-0.3c0,0,0,0,0.1,0
		c2.6,3,5.8,6.6,6.3,6.9c0,0,5.1,5.7,6.2,6.6c0,0,4.1,4.4,4.4,5.3c0,0,0.4,0.7,1.1,0.3c0,0,2.9-2.3,3-2.9
		C-360.9,353.6-360.5,353.1-360.9,352.7z"/>
	<path fill="none" stroke="#FFFFFF" stroke-miterlimit="10" d="M-383.9,332.5"/>
	<path fill="none" stroke="#FFFFFF" stroke-miterlimit="10" d="M-402.8,369.5"/>
	<g>
		<path fill="#FFFFFF" d="M-489.1,388.2v49.3h-4.9v-49.3h-5.3v-4.8h15v4.8H-489.1z"/>
		<path fill="#FFFFFF" d="M-472.3,416.3v21.2h-4.9v-21.2l-6-32.9h4.6l4.1,25.3l4.2-25.3h4.6L-472.3,416.3z"/>
		<path fill="#FFFFFF" d="M-462.9,437.4v-54.1h4.9v49.2h8v4.9L-462.9,437.4L-462.9,437.4z"/>
		<path fill="#FFFFFF" d="M-446.7,437.4v-54.1h13.1v4.6h-8.3v19.3h6v4.6h-6v20.8h8.3v4.6H-446.7z"/>
		<path fill="#FFFFFF" d="M-415,437.8c-2.9,0-4.1-1-4.1-5v-15.7c0-2.2-1.1-3.6-2.9-3.6h-2.9v23.9h-5v-54.1h8.2
			c3.1,0,7.1,1.6,7.1,8.5v12.6c0,3.3-0.8,5.7-3.3,6.8c2.5,1.1,3.5,3.6,3.5,6.7v14.7c0,1.4,0.1,2.1,1,2.1v3H-415z M-419.3,391.4
			c0-2.2-1-3.1-2.4-3.1h-3.1v20.4h2.8c1.6,0,2.8-1.4,2.8-3.6L-419.3,391.4L-419.3,391.4z"/>
		<path fill="#FFFFFF" d="M-395,438.1c-4.4,0-7.9-3.7-7.9-9.3V392c0-5.4,3.5-9.3,7.9-9.3s7.6,3.8,7.6,9.3v10.3h-4.2V391
			c0-1.8-1.1-3.3-3.1-3.3c-2,0-3.1,1.6-3.1,3.3v38.8c0,1.9,1.1,3.3,3.1,3.3c2,0,3.1-1.4,3.1-3.3v-11.3h4.2v10.4
			C-387.5,434.4-390.7,438.1-395,438.1z"/>
		<path fill="#FFFFFF" d="M-375.8,438.1c-4.4,0-8-3.7-8-9.3V392c0-5.4,3.7-9.3,8-9.3c4.4,0,8,3.8,8,9.3v36.8
			C-367.7,434.4-371.3,438.1-375.8,438.1z M-372.6,391c0-1.8-1.2-3.3-3.1-3.3c-2,0-3.1,1.6-3.1,3.3v38.8c0,1.9,1.1,3.3,3.1,3.3
			c2,0,3.1-1.4,3.1-3.3V391z"/>
		<path fill="#FFFFFF" d="M-355.9,438.1c-4.4,0-7.9-3.7-7.9-9.3V392c0-5.4,3.5-9.3,7.9-9.3c4.4,0,7.6,3.8,7.6,9.3v10.3h-4.2V391
			c0-1.8-1.1-3.3-3.1-3.3c-2,0-3.1,1.6-3.1,3.3v38.8c0,1.9,1.1,3.3,3.1,3.3c2,0,3.1-1.4,3.1-3.3v-11.3h4.2v10.4
			C-348.3,434.4-351.5,438.1-355.9,438.1z"/>
		<path fill="#FFFFFF" d="M-333.1,437.4v-24.3h-6.1v24.3h-5v-54.1h5v25.1h6.1v-25.1h4.9v54.1L-333.1,437.4L-333.1,437.4z"/>
		<path fill="#FFFFFF" d="M-308.8,437.8c-2.9,0-4.1-1-4.1-5v-15.7c0-2.2-1.1-3.6-2.9-3.6h-2.9v23.9h-5v-54.1h8.2
			c3.1,0,7.1,1.6,7.1,8.5v12.6c0,3.3-0.8,5.7-3.3,6.8c2.5,1.1,3.5,3.6,3.5,6.7v14.7c0,1.4,0.1,2.1,1,2.1v3H-308.8z M-313.1,391.4
			c0-2.2-1-3.1-2.4-3.1h-3.1v20.4h2.8c1.6,0,2.8-1.4,2.8-3.6L-313.1,391.4L-313.1,391.4z"/>
		<path fill="#FFFFFF" d="M-293.5,437.4l-0.8-11h-5.4l-1.1,11h-4.5l6.1-54.1h5.1l5.7,54.1H-293.5z M-296.7,396.6l-2.5,25.1h4.5
			L-296.7,396.6z"/>
		<path fill="#FFFFFF" d="M-272.1,437.4l-7.1-27.9l-1.6-8.2v36.1h-4.6v-54.1h4.8l6.2,28.3l1.4,8.4v-36.6h4.6v54.1L-272.1,437.4
			L-272.1,437.4z"/>
	</g>
	<line fill="none" stroke="#FFFFFF" stroke-miterlimit="10" x1="-515.1" y1="450.6" x2="-249.7" y2="450.6"/>
	<line fill="none" stroke="#FFFFFF" stroke-miterlimit="10" x1="-515.1" y1="370.3" x2="-249.7" y2="370.3"/>
</g>
</svg>
